<svg width="120" height="120" viewBox="0 0 120 120" fill="none" xmlns="http://www.w3.org/2000/svg">
<path d="M96.7774 11.3618L85.8322 5L22.1982 41.7431L33.1457 48.1027L96.7774 11.3618Z" fill="#363E44"/>
<path d="M21 43.8376L21.181 108.693L31.9794 114.984L31.9338 50.1902L21 43.8376Z" fill="#1E262D"/>
<path d="M97.752 14.6667H97.9814L97.9854 17.0955L97.7568 17.0964L97.7617 19.5251H97.9912L97.9951 21.9539L97.7666 21.9548L97.7715 24.3835H98.001L98.0049 26.8123L97.7764 26.8132L97.7783 27.8943L96.6689 28.5359L96.7832 28.7332L94.334 30.1472L94.2207 29.949L91.7715 31.363L91.8857 31.5603L89.4365 32.9744L89.3232 32.7771L86.874 34.1912L86.9873 34.3884L84.5391 35.8025L84.4258 35.6042L81.9766 37.0183L82.0908 37.2166L79.6416 38.6296L79.5273 38.4324L77.0791 39.8464L77.1924 40.0437L74.7441 41.4578L74.6299 41.2595L72.1816 42.6736L72.2959 42.8718L69.8467 44.2849L69.7324 44.0876L67.2842 45.5017L67.3975 45.699L64.9482 47.113L64.835 46.9148L62.3867 48.3289L62.5 48.5261L60.0508 49.9402L59.9375 49.7429L57.4883 51.157L57.6025 51.3542L55.1533 52.7683L55.04 52.5701L52.5908 53.9841L52.7051 54.1814L50.2559 55.5955L50.1426 55.3982L47.6934 56.8123L47.8076 57.0095L45.3594 58.4236L45.2451 58.2253L42.7959 59.6394L42.9102 59.8376L40.4609 61.2507L40.3477 61.0535L37.8984 62.4666L38.0117 62.6648L35.5645 64.0789L35.4492 63.8806L34.5693 64.3884V63.5701H34.3398V61.1375H34.5693V58.7058H34.3398V56.2732H34.5693V53.8406H34.3398V51.4089H34.5693V50.324L35.6787 49.6843L35.5635 49.4861L35.5625 49.4851L38.0107 48.072L38.0117 48.073L38.126 48.2712L40.5732 46.8582L40.459 46.6599L40.458 46.6589L42.9053 45.2458L42.9062 45.2468L43.0215 45.4451L45.4688 44.032L45.3545 43.8337L45.3535 43.8328L47.8008 42.4197L47.8018 42.4207L47.916 42.6189L50.3643 41.2058L50.25 41.0076L50.249 41.0066L52.6963 39.5935L52.6973 39.5945L52.8115 39.7927L55.2598 38.3796L55.1445 38.1814L55.1436 38.1804L57.5918 36.7673L57.5928 36.7683L57.707 36.9666L60.1543 35.5535L60.04 35.3552L60.0391 35.3542L62.4863 33.9412L62.4873 33.9421L62.6025 34.1404L65.0498 32.7273L64.9355 32.5291L64.9346 32.5281L67.3818 31.115L67.3828 31.116L67.498 31.3142L69.9453 29.9011L69.8311 29.7029L69.8301 29.7019L72.2773 28.2888L72.2783 28.2898L72.3926 28.488L74.8408 27.075L74.7256 26.8767L74.7246 26.8757L77.1729 25.4626L77.1738 25.4636L77.2881 25.6619L79.7354 24.2488L79.6211 24.0505L79.6201 24.0496L82.0684 22.6365L82.0693 22.6375L82.1836 22.8357L84.6309 21.4226L84.5166 21.2244L84.5156 21.2234L86.9629 19.8103L86.9639 19.8113L87.0791 20.0095L89.5264 18.5964L89.4121 18.3982L89.4111 18.3972L91.8584 16.9841L91.8594 16.9851L91.9736 17.1833L94.4219 15.7703L94.3066 15.572L94.3057 15.571L96.7539 14.158L96.7549 14.1589L96.8691 14.3572L97.749 13.8474L97.752 14.6667ZM38.2285 55.1902C38.2464 55.2694 38.2723 55.3466 38.3057 55.4207L38.0967 55.5144C38.1164 55.5581 38.139 55.6007 38.1631 55.6423C38.1871 55.684 38.2132 55.7246 38.2412 55.7634L38.4268 55.6296C38.4742 55.6955 38.5283 55.7562 38.5879 55.8113L38.4326 55.9792C38.4679 56.0118 38.5045 56.0431 38.543 56.072C38.5814 56.101 38.6211 56.1282 38.6621 56.1531L38.7812 55.9568C38.8505 55.9987 38.9237 56.034 39 56.0613L38.9229 56.2771C38.9679 56.2932 39.014 56.3065 39.0605 56.3181C39.1073 56.3297 39.1547 56.3396 39.2021 56.3464L39.2354 56.1189C39.3152 56.1304 39.396 56.1343 39.4766 56.1296L39.4902 56.3582L39.6338 56.3425C39.6812 56.335 39.7282 56.3255 39.7744 56.3132L39.7158 56.0916C39.794 56.0709 39.8699 56.0425 39.9424 56.0066L40.0439 56.2117C40.0869 56.1904 40.1292 56.1669 40.1699 56.1414L40.1689 56.1404L41.2617 55.5115L41.1475 55.3132L43.3457 54.0457L43.4609 54.2439L45.6592 52.9763L45.5449 52.7781L47.7432 51.5105L47.8574 51.7087L50.0557 50.4412L49.9414 50.2429L52.1396 48.9753L52.2539 49.1746L54.4531 47.907L54.3379 47.7078L56.5371 46.4402L56.6514 46.6394L58.8496 45.3718L58.7354 45.1726L60.9336 43.905L61.0479 44.1042L62.1465 43.4695C62.1867 43.4479 62.2268 43.4254 62.2646 43.4001L62.1367 43.2097C62.2042 43.1647 62.2671 43.113 62.3242 43.0554L62.4863 43.2166L62.583 43.1091C62.6133 43.0718 62.6417 43.033 62.668 42.9929L62.4766 42.8669C62.5208 42.7996 62.558 42.7279 62.5879 42.6531L62.8008 42.738L62.8477 42.6013C62.861 42.555 62.8723 42.508 62.8809 42.4607L62.6553 42.4197C62.6696 42.3401 62.6756 42.2593 62.6738 42.1785L62.9033 42.1736C62.9023 42.1256 62.8985 42.0769 62.8926 42.0291C62.8867 41.9814 62.8787 41.9341 62.8682 41.8875L62.6445 41.9382C62.6267 41.8593 62.6006 41.7825 62.5674 41.7087L62.7764 41.614C62.7567 41.5704 62.735 41.5277 62.7109 41.4861L62.6328 41.365L62.4463 41.4988C62.399 41.4331 62.3456 41.372 62.2861 41.3171L62.4414 41.1492C62.4062 41.1166 62.3695 41.0854 62.3311 41.0564L62.2109 40.9763L62.0928 41.1716C62.0236 41.1297 61.9502 41.0954 61.874 41.0681L61.9512 40.8523C61.9061 40.8362 61.8601 40.8219 61.8135 40.8103L61.6719 40.783L61.6387 41.0095C61.5585 40.998 61.4774 40.9941 61.3965 40.9988L61.3838 40.7703C61.3358 40.773 61.2878 40.7783 61.2402 40.7859C61.1928 40.7935 61.1459 40.8039 61.0996 40.8162L61.1572 41.0359C61.0789 41.0566 61.0033 41.0868 60.9307 41.1228L60.8291 40.9167C60.7861 40.938 60.7439 40.9615 60.7031 40.9871L59.6113 41.6169L59.7256 41.8152L57.5273 43.0828L57.4131 42.8845L55.2148 44.1521L55.3291 44.3503L53.1299 45.6169L53.0166 45.4197L50.8174 46.6873L50.9316 46.8845L48.7334 48.1531L48.6191 47.9548L46.4209 49.2224L46.5352 49.4207L44.3369 50.6882L44.2227 50.49L42.0244 51.7576L42.1377 51.9548L39.9395 53.2224L39.8252 53.0251L38.7334 53.655C38.6909 53.6776 38.6493 53.7017 38.6094 53.7283L38.7363 53.9197C38.6692 53.9645 38.6067 54.0157 38.5498 54.073L38.3867 53.9119L38.291 54.0193C38.2607 54.0566 38.2324 54.0954 38.2061 54.1355L38.3975 54.2615C38.353 54.3292 38.3152 54.4011 38.2852 54.4763L38.0723 54.3914C38.0545 54.4358 38.0386 54.481 38.0254 54.5271C38.0121 54.5733 38.0017 54.6206 37.9932 54.6677L38.2188 54.7087C38.2044 54.7883 38.1975 54.8691 38.1992 54.95L37.9707 54.9548C37.9718 55.0028 37.9746 55.0515 37.9805 55.0994C37.9863 55.1471 37.9953 55.1943 38.0059 55.241L38.2285 55.1902ZM70.0283 33.5017C69.9117 33.5092 69.796 33.5254 69.6826 33.5496L69.7295 33.7732C69.5236 33.8171 69.3252 33.8917 69.1406 33.9929L69.0303 33.7917C68.9337 33.8447 68.8409 33.9051 68.752 33.9714C68.5563 34.0978 68.3688 34.2357 68.1904 34.3835L68.3359 34.5603C67.9919 34.8454 67.6825 35.1702 67.415 35.5281L67.2314 35.3914C67.1621 35.4842 67.0961 35.5796 67.0322 35.6765L66.8486 35.9734C66.7323 36.175 66.6283 36.3827 66.5371 36.5955L66.7471 36.6853C66.5711 37.0959 66.4438 37.5261 66.3691 37.9666L66.1445 37.9294C66.1067 38.1531 66.0821 38.3795 66.0703 38.6072C66.0571 38.7232 66.0529 38.84 66.0566 38.9558L66.2852 38.948C66.292 39.158 66.3295 39.366 66.3965 39.5652V39.5662L66.1797 39.6394C66.2166 39.7492 66.2615 39.8566 66.3145 39.9607C66.3674 40.0647 66.4281 40.1641 66.4951 40.2585L66.6816 40.1267V40.1257C66.8036 40.2978 66.9499 40.4512 67.1162 40.5808L66.9756 40.7615C67.0668 40.8325 67.1633 40.8973 67.2646 40.9548C67.3662 41.0124 67.4721 41.0624 67.5801 41.1042L67.6631 40.8904C67.859 40.9663 68.0649 41.0136 68.2744 41.03L68.2578 41.2585C68.373 41.2675 68.4892 41.2675 68.6055 41.2595C68.722 41.2515 68.838 41.2354 68.9512 41.2107L68.9023 40.9871C69.1079 40.9423 69.3053 40.8664 69.4893 40.7644L69.4902 40.7654L69.5244 40.8259V41.0203L69.877 40.7947C70.0731 40.6693 70.2616 40.5326 70.4404 40.3855L70.2949 40.2087L70.2939 40.2078C70.6388 39.9242 70.949 39.6011 71.2168 39.2439L71.4004 39.3816C71.4698 39.289 71.5367 39.1942 71.6006 39.0974L71.7842 38.8005C71.9006 38.599 72.0047 38.3913 72.0957 38.1785L71.8848 38.0876L71.8838 38.0867C72.0593 37.6762 72.1855 37.2467 72.2588 36.8064L72.2598 36.8074L72.4854 36.8445C72.5225 36.6214 72.5467 36.3958 72.5576 36.1687C72.5712 36.0527 72.5756 35.9359 72.5723 35.8201L72.3428 35.8269C72.3366 35.6163 72.3008 35.4077 72.2344 35.2078L72.4512 35.1355C72.4146 35.0255 72.37 34.9176 72.3174 34.8132L72.2334 34.6599C72.2034 34.6099 72.1711 34.561 72.1377 34.5134L71.9502 34.6443C71.8289 34.4721 71.6832 34.3183 71.5176 34.1882L71.6592 34.0085C71.568 33.9369 71.4716 33.8713 71.3701 33.8132L71.2148 33.7322C71.1625 33.7071 71.1095 33.684 71.0557 33.6628L70.9717 33.8757C70.7753 33.7986 70.5686 33.7504 70.3584 33.7332L70.3779 33.5056C70.2624 33.4961 70.145 33.4943 70.0283 33.5017ZM81.2266 27.0427C81.1101 27.0509 80.9949 27.0676 80.8818 27.0925L80.9307 27.3162C80.725 27.3614 80.5266 27.4361 80.3428 27.5388L80.2314 27.3396C80.1361 27.3929 80.0448 27.4539 79.957 27.5203C79.7611 27.6451 79.5732 27.7809 79.3945 27.9275L79.5391 28.1042C79.1945 28.3869 78.885 28.71 78.6172 29.0662L78.4346 28.9294C78.3652 29.0218 78.2983 29.1161 78.2344 29.2126L78.0508 29.5085C77.9344 29.7094 77.8304 29.9165 77.7393 30.1287L77.9492 30.2195C77.7734 30.6288 77.6463 31.0576 77.5723 31.4968L77.3477 31.4597C77.3101 31.6827 77.2857 31.9084 77.2744 32.1355C77.2614 32.2514 77.2569 32.3685 77.2607 32.4841L77.4893 32.4763C77.4963 32.6863 77.5337 32.8943 77.6006 33.0935L77.3838 33.1667C77.4206 33.2764 77.4658 33.384 77.5186 33.488C77.5713 33.592 77.6316 33.6914 77.6982 33.7859L77.8848 33.6541C78.0061 33.826 78.1529 33.9782 78.3184 34.1082V34.1091L78.1768 34.2898C78.2676 34.3611 78.3638 34.4263 78.4648 34.4841C78.5661 34.5421 78.6716 34.5922 78.7793 34.6345L78.8623 34.4207C79.0581 34.4977 79.264 34.5465 79.4736 34.5642L79.4551 34.7917C79.5128 34.7966 79.5708 34.7999 79.6289 34.8005L79.8027 34.7966C79.9192 34.7895 80.0352 34.7735 80.1484 34.7498L80.1016 34.5251C80.2556 34.4928 80.4057 34.4443 80.5488 34.3796L80.6904 34.3093L80.7266 34.3757V34.5691L81.0801 34.3406C81.2761 34.2141 81.4639 34.0765 81.6426 33.9285L81.4961 33.7517L81.4951 33.7507C81.84 33.465 82.1501 33.14 82.418 32.781L82.4189 32.782L82.6025 32.9187C82.7413 32.7327 82.8689 32.5379 82.9854 32.3357C83.1018 32.1335 83.2057 31.9251 83.2969 31.7117L83.0869 31.6218L83.0859 31.6208C83.2618 31.2089 83.388 30.7775 83.4619 30.3357L83.4629 30.3367L83.6885 30.3748C83.726 30.151 83.7503 29.9248 83.7617 29.697C83.7753 29.5809 83.7799 29.4643 83.7764 29.3484L83.5469 29.3552C83.5405 29.1445 83.5035 28.936 83.4365 28.7361L83.6543 28.6638C83.6175 28.5539 83.5724 28.4458 83.5195 28.3416C83.4668 28.2376 83.4066 28.1381 83.3398 28.0437L83.1523 28.1755C83.0307 28.0038 82.8847 27.8508 82.7188 27.7214L82.8594 27.5408C82.7679 27.4695 82.671 27.404 82.5693 27.3464L82.4141 27.2664C82.3615 27.2415 82.308 27.2179 82.2539 27.197L82.1719 27.4109H82.1709C81.9747 27.3351 81.7683 27.2883 81.5586 27.2722L81.5762 27.0437C81.4606 27.0349 81.3431 27.0345 81.2266 27.0427ZM92.4277 20.574C92.3111 20.5821 92.1953 20.5989 92.082 20.6238L92.1309 20.8464C91.9251 20.8916 91.727 20.9674 91.543 21.0701L91.4316 20.8699C91.3362 20.9231 91.2451 20.9842 91.1572 21.0505C90.9601 21.176 90.7706 21.3124 90.5908 21.4597L90.7363 21.6375C90.3896 21.9214 90.0773 22.2453 89.8076 22.6033L89.625 22.4656C89.4851 22.6512 89.3556 22.8455 89.2383 23.0476C89.121 23.2496 89.0167 23.4582 88.9248 23.6716L89.1348 23.7625C88.9576 24.1739 88.8297 24.605 88.7549 25.0466L88.5293 25.0095C88.4913 25.2338 88.4667 25.4608 88.4551 25.6892C88.4423 25.8056 88.4382 25.9228 88.4424 26.0388L88.6719 26.03C88.6795 26.2411 88.7172 26.4502 88.7852 26.6501L88.5684 26.7244C88.6057 26.8342 88.6517 26.9416 88.7051 27.0457C88.7584 27.1497 88.8194 27.2491 88.8867 27.3435L89.0723 27.2107C89.1949 27.3828 89.3428 27.5353 89.5098 27.6648V27.6658L89.3691 27.8464C89.4609 27.9176 89.5582 27.9823 89.6602 28.0398C89.762 28.0973 89.8673 28.1475 89.9756 28.1892L90.0586 27.9753V27.9744C90.2553 28.0502 90.4617 28.0978 90.6719 28.114L90.6553 28.3425C90.7132 28.347 90.7718 28.3492 90.8301 28.3494L91.0049 28.3435C91.1216 28.3354 91.2372 28.3185 91.3506 28.2937L91.3018 28.0701C91.4563 28.0363 91.6067 27.9861 91.75 27.9197L91.8906 27.8474L91.9258 27.9099V28.1082L92.2793 27.8806C92.4757 27.754 92.6638 27.6158 92.8428 27.4675L92.6973 27.2908C92.956 27.0764 93.1948 26.8393 93.4111 26.5828L93.6201 26.3201L93.8037 26.4568C93.9427 26.2705 94.071 26.0753 94.1875 25.8728C94.304 25.6702 94.4088 25.4616 94.5 25.2478L94.2891 25.158L94.2881 25.157C94.4638 24.7449 94.5913 24.3137 94.665 23.8718V23.8708L94.8906 23.9089C94.9289 23.6796 94.9541 23.4471 94.9648 23.2136L94.9639 23.2126C94.9759 23.1023 94.9818 22.9918 94.9785 22.8816L94.748 22.8884C94.7417 22.6774 94.7048 22.4685 94.6377 22.2683L94.8564 22.196C94.8196 22.086 94.7746 21.9781 94.7217 21.8738L94.6367 21.7214C94.6066 21.6715 94.5746 21.6224 94.541 21.575L94.3535 21.7068C94.2317 21.535 94.0851 21.3821 93.9189 21.2527H93.9199L94.0605 21.072C93.9692 21.0008 93.8721 20.9363 93.7705 20.8787L93.6152 20.7976C93.5627 20.7727 93.5091 20.7502 93.4551 20.7292L93.3721 20.9421C93.1756 20.8661 92.9689 20.8186 92.7588 20.8025L92.7764 20.575C92.7186 20.5705 92.6606 20.5683 92.6025 20.5681L92.4277 20.574Z" fill="#CFDAE6" fill-opacity="0.04" stroke="#ADBACC" stroke-width="0.458333" stroke-dasharray="2.75 2.75"/>
<path d="M98.1426 69.0835L98.1504 71.7222V71.7231H97.9219L97.9287 74.3628L98.1582 74.3618L98.166 77.0005V77.0015L97.9365 77.0024L97.9395 78.189L96.8291 78.8276L96.9424 79.0259L94.4902 80.437L94.376 80.2388L91.9229 81.6489L92.0361 81.8472L89.585 83.2583L89.4707 83.0601L87.0176 84.4712L87.1309 84.6685L84.6777 86.0796L84.5645 85.8813L82.1123 87.2925L82.2256 87.4897L79.7725 88.9009L79.6592 88.7026L77.2061 90.1138L77.3203 90.312L74.8672 91.7231L74.7529 91.5239L72.3008 92.9351L72.415 93.1333L69.9619 94.5444L69.8477 94.3462L67.3945 95.7563L67.5078 95.9546L65.0566 97.3657L64.9424 97.1675L62.4893 98.5776L62.6025 98.7759L60.1504 100.187L60.0361 99.9888L57.583 101.4L57.6973 101.598L55.2441 103.008L55.1309 102.81L52.6777 104.221L52.792 104.419L50.3389 105.831L50.2246 105.631L47.7725 107.042L47.8867 107.241L45.4336 108.652L45.3193 108.453L42.8662 109.864L42.9805 110.062L40.5283 111.473L40.4141 111.275L37.9609 112.685L38.0742 112.883L35.6221 114.294L35.5078 114.096L34.624 114.603V113.682L34.3945 113.683L34.3926 111.048L34.6221 111.047L34.6201 108.414H34.3906L34.3887 105.779H34.6182L34.6162 103.144H34.3867L34.3848 100.509H34.6143L34.6123 97.8745H34.3828L34.3809 95.2397H34.6104L34.6084 92.605H34.3789L34.3779 89.9702H34.6064L34.6045 87.3354H34.376L34.374 84.7007H34.6025L34.6006 82.0659H34.3721L34.3701 79.4312H34.5986L34.5977 76.7964H34.3682L34.3662 74.1626L34.5957 74.1616L34.5938 71.5269L34.3643 71.5278L34.3623 68.8931L34.5918 68.8921L34.5908 67.7065L35.7002 67.0669L35.5859 66.8687L35.585 66.8677L38.0342 65.4536L38.0352 65.4546L38.1494 65.6528L40.5986 64.2388L40.4834 64.0405L42.9326 62.6265L43.0469 62.8257L45.4961 61.4116L45.3818 61.2124L47.8301 59.7983L47.8311 59.7993L47.9453 59.9976L50.3945 58.5835L50.2793 58.3853L52.7285 56.9712L52.8428 57.1694L55.292 55.7554L55.1777 55.5571L57.626 54.1431L57.7412 54.3413L60.1895 52.9282L60.0752 52.729L62.5234 51.3149L62.5244 51.3159L62.6387 51.5142L65.0879 50.1001L64.9736 49.9019L64.9727 49.9009L67.4219 48.4878L67.5371 48.686L69.9854 47.272L69.8711 47.0737L72.3203 45.6597L72.4346 45.8579L74.8838 44.4448L74.7695 44.2456L77.2168 42.8315L77.2178 42.8325L77.333 43.0308L79.7812 41.6167L79.667 41.4185L79.666 41.4175L82.1152 40.0034L82.1162 40.0044L82.2305 40.2026L84.6797 38.7886L84.5645 38.5903L87.0137 37.1763L87.1289 37.3745L89.5771 35.9614L89.4629 35.7622L91.9111 34.3481L91.9121 34.3491L92.0264 34.5474L94.4756 33.1333L94.3604 32.9351L96.8096 31.521L96.9238 31.7192L97.8057 31.2095L97.8086 32.1343L98.0381 32.1333L98.0449 34.7729H98.0459L97.8164 34.7739L97.8242 37.4126H98.0527L98.0605 40.0513L97.8311 40.0522L97.8389 42.6919L98.0674 42.6909L98.0752 45.3296L97.8467 45.3306L97.8535 47.9702L98.083 47.9692V47.9683L98.0908 50.6089H97.8613L97.8691 53.2485L98.0977 53.2476H98.0986L98.1055 55.8862V55.8872L97.876 55.8882L97.8838 58.5269H98.1133L98.1211 61.1655L97.8916 61.1665L97.8994 63.8062L98.1279 63.8052V63.8042L98.1357 66.4448H97.9062L97.9141 69.0845L98.1426 69.0835ZM72.1016 54.8862C71.2265 54.8854 70.3094 55.0057 69.3623 55.2524L69.4199 55.4741V55.4751C68.5968 55.6896 67.7482 56.0013 66.8818 56.4155V56.4146L66.7832 56.2085C66.5819 56.3047 66.3797 56.4061 66.1768 56.5132L65.5654 56.8511L65.5557 56.8569C65.2266 57.0703 64.9018 57.2905 64.582 57.5161L64.7139 57.7036L64.7148 57.7046C64.0786 58.1536 63.4596 58.6247 62.8623 59.1206L62.7168 58.9448C62.1134 59.4458 61.5302 59.9703 60.9688 60.5161L61.1279 60.6802L61.1299 60.6821C60.5726 61.2239 60.0366 61.7869 59.5234 62.3706L59.5215 62.3696L59.3496 62.2183C58.8326 62.8064 58.3382 63.4157 57.8682 64.0435L58.0508 64.1792C57.5853 64.8009 57.1471 65.4438 56.7305 66.1021L56.7275 66.1001L56.5342 65.978C56.4296 66.1432 56.327 66.3097 56.2256 66.4771L55.9258 66.9829C55.7292 67.3222 55.5392 67.6652 55.3564 68.0112L55.5586 68.1187L55.5605 68.1196C55.197 68.8079 54.8584 69.5078 54.5508 70.2202L54.3408 70.1304C54.03 70.8503 53.7482 71.5819 53.4951 72.3228L53.7119 72.397H53.7139C53.4625 73.1328 53.2399 73.8781 53.0469 74.6313H53.0449L52.8232 74.5747C52.6289 75.3332 52.4636 76.1 52.3291 76.8726L52.5547 76.9116H52.5557C52.4225 77.6766 52.3212 78.4477 52.248 79.2231H52.2451L52.0176 79.2017C51.9992 79.3964 51.9823 79.5914 51.9678 79.7866L51.9297 80.3735V80.3862C51.931 80.8593 51.9506 81.3188 51.9873 81.7632L52.2148 81.7437L52.2158 81.7427C52.2949 82.7025 52.4563 83.5914 52.6904 84.4067L52.6895 84.4077L52.4688 84.4712C52.7395 85.4139 53.1074 86.2627 53.5605 87.0112L53.7568 86.8921L53.7578 86.8911C54.2473 87.6997 54.8369 88.3853 55.5107 88.9419V88.9438L55.3652 89.1206C56.0881 89.7175 56.9043 90.1706 57.7939 90.4712L57.8672 90.2534V90.2515C58.6956 90.5315 59.5894 90.6759 60.5332 90.6782V90.6802L60.5322 90.9097C61.4104 90.9118 62.3281 90.793 63.2715 90.5513L63.2148 90.3296L63.2139 90.3276C64.0417 90.1155 64.892 89.8068 65.7559 89.396L65.7568 89.397L65.8545 89.604C66.0562 89.5081 66.259 89.407 66.4619 89.3003L67.0732 88.9634L67.084 88.9565C67.4119 88.7433 67.7351 88.5238 68.0537 88.2983L67.9219 88.1108L67.9199 88.1079C68.3177 87.8265 68.7102 87.5387 69.0928 87.2388L69.7666 86.6938L69.9141 86.8696C70.5153 86.3692 71.0959 85.8454 71.6553 85.3003L71.4961 85.1362L71.4932 85.1333C72.0488 84.5918 72.5832 84.0292 73.0947 83.4458L73.0967 83.4478L73.2695 83.5991C73.7846 83.0117 74.2769 82.4038 74.7451 81.7769L74.5615 81.6401L74.5605 81.6392C75.0242 81.0183 75.4621 80.3775 75.877 79.7202L75.8799 79.7222L76.0732 79.8442C76.1774 79.6792 76.2808 79.5134 76.3818 79.3462L76.6797 78.8413C76.8755 78.5024 77.0641 78.1595 77.2461 77.814L77.0439 77.7075L77.04 77.7056C77.2671 77.2743 77.4872 76.8399 77.6924 76.3989L78.0459 75.6079L78.2568 75.6987C78.5661 74.9799 78.847 74.249 79.0986 73.5093L78.8809 73.436L78.8779 73.4351C79.1278 72.7005 79.3485 71.9565 79.54 71.2046L79.5439 71.2056L79.7656 71.2622C79.9585 70.5051 80.1217 69.7394 80.2549 68.9683L80.0293 68.9292L80.0283 68.9282C80.1602 68.1648 80.2602 67.3953 80.332 66.6216L80.335 66.6226L80.5635 66.644C80.5815 66.4496 80.598 66.255 80.6123 66.0601L80.6494 65.4741V65.4614L80.6348 64.7632C80.6253 64.5338 80.6109 64.3079 80.5928 64.0854L80.3643 64.104H80.3633C80.2854 63.1461 80.1267 62.2562 79.8955 61.438H79.8975L80.1172 61.3755C79.851 60.4332 79.4898 59.5816 79.043 58.8286L78.8457 58.9458H78.8438C78.361 58.1326 77.7792 57.4398 77.1113 56.8765H77.1123L77.2598 56.7007C76.5428 56.0959 75.7307 55.6354 74.8418 55.3296L74.7666 55.5464H74.7656C73.941 55.2629 73.0481 55.1167 72.1016 55.1157V54.8862Z" fill="#CFDAE6" fill-opacity="0.04" stroke="#ADBACC" stroke-width="0.458333" stroke-dasharray="2.75 2.75"/>
<path d="M66.8753 59.1418C63.297 61.4627 60.3176 64.5961 58.1798 68.2867C56.042 71.9772 54.8063 76.1205 54.5732 80.3792C54.4887 81.5656 54.6541 82.7567 55.0583 83.8753C55.4625 84.994 56.0967 86.0154 56.9201 86.8739L73.5602 57.7187C71.2318 57.3184 68.8387 57.8278 66.8753 59.1418Z" fill="url(#paint0_linear_6307_1531)"/>
<path d="M59.0195 88.0701C61.3601 88.5104 63.7798 88.0088 65.7526 86.6745C69.3192 84.3539 72.2872 81.2236 74.415 77.5387C76.5428 73.8537 77.7703 69.7183 77.9972 65.4692C78.0837 64.2756 77.9201 63.077 77.5172 61.95C77.1143 60.823 76.481 59.7924 75.6574 58.9241L59.0195 88.0701Z" fill="url(#paint1_linear_6307_1531)"/>
<defs>
<linearGradient id="paint0_linear_6307_1531" x1="73.2385" y1="60.2702" x2="53.9199" y2="61.6813" gradientUnits="userSpaceOnUse">
<stop stop-color="#0DBFBB"/>
<stop offset="1" stop-color="#0F8D8C"/>
</linearGradient>
<linearGradient id="paint1_linear_6307_1531" x1="77.6981" y1="61.6101" x2="58.3877" y2="63.0193" gradientUnits="userSpaceOnUse">
<stop stop-color="#0DBFBB"/>
<stop offset="1" stop-color="#0F8D8C"/>
</linearGradient>
</defs>
</svg>
