<svg width="120" height="120" viewBox="0 0 120 120" fill="none" xmlns="http://www.w3.org/2000/svg">
<path d="M89.1064 74.5715L89.2797 74.5956L89.9599 75.2882L90.1381 75.1128L92.0895 77.1002L91.9128 77.2756L93.8649 79.2636L94.0431 79.0882L95.9945 81.0756L95.8177 81.251L97.7699 83.239L97.9466 83.0637L99.9002 85.0517L99.722 85.2271L101.675 87.2144L101.852 87.0391L103.805 89.0271L103.627 89.2025L105.58 91.1899L105.757 91.0145L107.709 93.0032L107.532 93.1779L108.495 94.1585C108.611 94.3112 108.719 94.4704 108.814 94.6356L109.03 94.5106C109.237 94.8673 109.395 95.2496 109.504 95.6473L109.264 95.7129C109.29 95.8069 109.313 95.9023 109.333 95.998L109.382 96.2874C109.409 96.4814 109.422 96.6763 109.424 96.8709L109.673 96.8688C109.677 97.2816 109.627 97.6932 109.525 98.0931L109.283 98.031C109.259 98.1251 109.232 98.2187 109.202 98.3113L109.102 98.5869L109.098 98.5944L109.096 98.602C108.889 99.236 108.645 99.856 108.367 100.458L108.592 100.563C108.025 101.789 107.316 102.945 106.48 104.005L106.283 103.851C105.872 104.372 105.43 104.87 104.958 105.342C104.487 105.813 103.989 106.255 103.468 106.666L103.623 106.862C102.562 107.699 101.406 108.408 100.18 108.975L100.076 108.749C99.4733 109.028 98.8534 109.271 98.2194 109.479L98.2111 109.481L98.2035 109.485L97.9245 109.587C97.8306 109.618 97.7355 109.646 97.64 109.671L97.7036 109.913L97.7029 109.914C97.2987 110.019 96.8824 110.07 96.4648 110.068L96.4668 109.818C96.2698 109.817 96.0722 109.804 95.8757 109.777L95.5823 109.727C95.4856 109.707 95.3893 109.684 95.2943 109.658L95.228 109.9C94.8253 109.79 94.4384 109.628 94.0776 109.418L94.2033 109.201C94.0365 109.104 93.876 108.995 93.722 108.877L92.8477 107.991L92.6703 108.167H92.6689L90.8915 106.364L91.0689 106.188L89.2908 104.385L89.1133 104.561H89.1119L87.3345 102.759L87.5127 102.584L85.7345 100.781L85.5564 100.956H85.555L83.7776 99.1538L83.9557 98.9784L83.0712 98.0828L83.1091 98.0696L83.085 98.0109C83.0758 97.9918 83.0652 97.9728 83.0539 97.955L82.8426 98.089L82.8398 98.0904C82.8277 98.0713 82.8145 98.0536 82.7984 98.0379L82.7998 98.0365L82.9738 97.857C82.9668 97.8501 82.9591 97.8441 82.9517 97.8376L81.8537 96.7314L81.6763 96.9075L79.4811 94.6943L79.6585 94.5182L77.464 92.3058L77.2866 92.4818H77.2852L75.0913 90.2701L75.2688 90.094L74.5127 89.3323C74.8292 89.2766 75.1436 89.2126 75.4553 89.1397L75.3986 88.8966L75.3979 88.8959C76.3305 88.6776 77.2394 88.3812 78.1159 88.012L78.1166 88.0127L78.2139 88.2427C79.1061 87.8668 79.9649 87.4163 80.7813 86.8961L80.6467 86.6855C81.4489 86.1744 82.2093 85.5946 82.9192 84.9516L82.9199 84.9523L83.087 85.1373C83.4445 84.8135 83.7897 84.4738 84.1208 84.1188H84.1194C84.4033 83.839 84.6791 83.5519 84.9446 83.2563L84.7588 83.0885C85.2891 82.498 85.781 81.8762 86.2331 81.2275H86.2345L86.4396 81.3705C86.8985 80.7119 87.3163 80.0253 87.6908 79.3154L87.4692 79.1987C87.8383 78.4991 88.1648 77.7763 88.4463 77.0339L88.6804 77.123C88.7514 76.9355 88.8194 76.7466 88.8848 76.5567L89.0726 75.985L89.0754 75.9753C89.1154 75.8253 89.1525 75.6744 89.1865 75.523L88.9421 75.4678C89.0087 75.1713 89.0635 74.8723 89.1064 74.5715ZM82.873 98.1511L83.0532 98.0883L82.9261 98.214L82.8875 98.2181L82.884 98.2188C82.8818 98.1958 82.8771 98.1737 82.8695 98.1518L82.873 98.1511Z" fill="#CFDAE6" fill-opacity="0.04" stroke="#ADBACC" stroke-width="0.5" stroke-dasharray="3 3"/>
<path d="M75.9242 80.5676C76.9059 80.2273 77.7976 79.6688 78.5323 78.9341C79.2669 78.1995 79.8253 77.3078 80.1656 76.3262C80.3194 75.7306 80.2858 75.2269 80.079 75.0202C79.9023 74.8434 72.1565 66.8431 72.3332 67.0269C71.4767 69.6494 70.2438 72.1336 68.6732 74.4016C69.1291 74.8576 74.8904 80.792 74.5793 80.4739C74.7773 80.6895 75.3039 80.7284 75.9242 80.5676Z" fill="url(#paint0_linear_6307_1524)"/>
<path d="M24.7168 16.6154C25.3741 15.883 26.085 15.2352 26.8491 14.6819L26.702 14.4796C27.4987 13.9027 28.3544 13.427 29.2674 13.0592L29.3599 13.2898C29.8015 13.1119 30.2575 12.9596 30.7272 12.8354L31.4115 12.6524L31.3459 12.4114L32.7138 12.0462L32.7145 12.0455L32.7656 12.2388C32.5068 12.5491 32.2579 12.8679 32.0171 13.1931L32.218 13.3416L32.2187 13.3423C31.5783 14.2073 31.0006 15.1242 30.4827 16.0851L30.2631 15.9663C29.7494 16.9193 29.2934 17.9137 28.8917 18.9411L29.1251 19.0323C28.7349 20.0303 28.3942 21.06 28.1024 22.1141L27.8628 22.0472C27.5745 23.0889 27.3319 24.1537 27.1322 25.2333L27.3781 25.2789L27.3801 25.2795C27.1844 26.3381 27.029 27.4116 26.912 28.4933H26.9106L26.662 28.4657C26.5452 29.5455 26.4662 30.6337 26.421 31.7215L26.6703 31.7319H26.6717C26.6266 32.8158 26.6132 33.9005 26.633 34.9788L26.3837 34.9836C26.4038 36.0789 26.4564 37.1677 26.5363 38.2423L26.7856 38.2236C26.867 39.318 26.979 40.3978 27.1157 41.4553H27.1143L26.8657 41.4871C26.936 42.0308 27.0137 42.5686 27.097 43.0995C27.1705 43.5703 27.2508 44.0449 27.3373 44.522L27.5832 44.4778C27.7516 45.4063 27.9449 46.3456 28.1625 47.2917L27.9188 47.3476C28.1319 48.2746 28.368 49.2084 28.6273 50.1443L28.8689 50.078C29.1226 50.9937 29.3977 51.912 29.6948 52.8291L29.4573 52.9064C29.7522 53.8166 30.0686 54.7261 30.4054 55.6306L30.6395 55.5429L30.6402 55.5422C30.9737 56.438 31.3275 57.3293 31.7015 58.2125L31.7008 58.2132L31.4709 58.3105C31.846 59.1963 32.2415 60.0744 32.6565 60.9408L32.8823 60.8338L32.883 60.8331C33.298 61.6994 33.7319 62.5545 34.1861 63.3943L33.9665 63.513C34.4265 64.3635 34.9061 65.199 35.4055 66.0155L35.6189 65.885C36.1222 66.7079 36.6452 67.5117 37.1878 68.2922L36.9827 68.4352C37.5373 69.233 38.1127 70.0074 38.7077 70.754L38.9024 70.5979L38.9031 70.5972C39.5065 71.3544 40.1306 72.0826 40.7744 72.7779L40.7737 72.7786L40.5901 72.9485C41.253 73.6645 41.9377 74.3463 42.643 74.989L42.8115 74.804L42.8108 74.8033C43.5271 75.456 44.2647 76.0681 45.0233 76.6346L45.024 76.6352L44.8748 76.8355C45.6575 77.4199 46.4631 77.9565 47.2903 78.4403L47.416 78.2249L47.4167 78.2228C48.2494 78.7098 49.1038 79.1428 49.9799 79.5155V79.5168L49.8826 79.7468C50.165 79.8669 50.4505 79.9788 50.7375 80.0865L50.7893 80.282L49.4165 80.6466L49.3536 80.4042L48.6672 80.5851L48.6665 80.5858C48.1982 80.7101 47.7238 80.8033 47.244 80.8648L47.2751 81.1113C46.3065 81.2354 45.3176 81.2345 44.3148 81.112L44.3452 80.8648C43.4122 80.7508 42.465 80.5294 41.5105 80.2012L41.4291 80.4373C40.5298 80.128 39.6263 79.7245 38.7215 79.2323L38.8396 79.0148C38.0148 78.5663 37.189 78.0406 36.3654 77.4397L36.2176 77.64C35.4478 77.0783 34.6809 76.4523 33.9202 75.7624L34.0887 75.5787C33.7313 75.2546 33.3744 74.9161 33.0197 74.5636C32.6758 74.2216 32.3383 73.8715 32.0067 73.5147L31.8237 73.6853C31.1593 72.9703 30.5202 72.2264 29.9054 71.4576L30.1002 71.3016C29.4943 70.5438 28.912 69.7614 28.3545 68.9565L28.1487 69.0988C27.5931 68.2966 27.0626 67.4721 26.555 66.6294L26.7683 66.5017C26.2672 65.6697 25.7891 64.8187 25.3348 63.9522L25.1138 64.0682C24.6601 63.2027 24.2295 62.3217 23.8225 61.4276L24.0504 61.324C23.6469 60.4376 23.2657 59.5377 22.9083 58.6282L22.6783 58.7187C22.3201 57.8071 21.9849 56.8856 21.6729 55.9565L21.907 55.8771C21.5961 54.9515 21.3087 54.0183 21.0438 53.0804L20.8028 53.1488C20.5357 52.2032 20.2941 51.2522 20.0736 50.2997L20.3153 50.243C20.0943 49.2883 19.8968 48.3309 19.7228 47.3746L19.4791 47.4194C19.3049 46.4616 19.1519 45.5048 19.0247 44.551L19.0199 44.5144L19.2678 44.4819C19.1384 43.5072 19.0337 42.5359 18.9536 41.5713L18.7064 41.592C18.6245 40.6067 18.5678 39.6281 18.5372 38.6593L18.7851 38.6517C18.7538 37.6641 18.7497 36.6866 18.772 35.7232L18.5247 35.7177C18.5477 34.7226 18.5963 33.742 18.676 32.7794L18.9253 32.7995C19.0071 31.8115 19.1191 30.8429 19.2609 29.8978L19.0164 29.8606C19.1648 28.8715 19.3426 27.9071 19.5564 26.9727L19.8008 27.028C20.0235 26.0549 20.2813 25.1148 20.5749 24.2127L20.3374 24.1353C20.6488 23.1787 21.0002 22.2639 21.3911 21.3967L21.619 21.4989C22.0301 20.5868 22.4849 19.729 22.9835 18.9329L22.7708 18.8003C23.3067 17.9447 23.8941 17.1586 24.531 16.449L24.7168 16.6154Z" fill="#CFDAE6" fill-opacity="0.04" stroke="#ADBACC" stroke-width="0.5" stroke-dasharray="3 3"/>
<path d="M41.3579 9.74873C29.9928 12.8078 28.0452 30.6217 29.8461 42.4676C33.9054 69.077 54.3914 87.4846 65.905 73.6771L65.9208 73.6613C76.5349 60.8876 71.8641 30.3125 57.2861 15.8157C51.9985 10.5599 46.3416 8.40562 41.3579 9.74873ZM61.3897 69.4693C57.5017 73.3573 51.8854 72.403 46.3698 66.9192C33.2727 53.8964 30.7703 26.9671 39.4882 18.2492C43.3761 14.3613 48.9995 15.3015 54.5133 20.7835C67.621 33.8169 70.1075 60.7515 61.3897 69.4693Z" fill="url(#paint1_linear_6307_1524)"/>
<path d="M79.3099 70.4977L81.9184 73.1909C82.3695 73.6999 82.677 74.3198 82.8093 74.9869C82.9416 75.6541 82.894 76.3444 82.6712 76.987C82.1904 78.4003 81.3914 79.6842 80.3358 80.7398C79.2802 81.7954 77.9964 82.5943 76.5831 83.0751C75.9246 83.2997 75.2184 83.346 74.5362 83.2095C73.854 83.0729 73.22 82.7583 72.6987 82.2976L70.2581 79.7899C70.1052 80.1753 69.9754 80.5695 69.8693 80.9704C69.5629 81.7359 69.461 82.568 69.5738 83.3848C69.6866 84.2017 70.0102 84.975 70.5126 85.6288C74.3299 89.4461 84.4791 82.1173 86.28 75.2409C86.5761 74.4694 86.6714 73.6353 86.557 72.8167C86.4427 71.9982 86.1224 71.2222 85.6261 70.5613C84.1151 69.0432 81.2981 69.637 79.3099 70.4977Z" fill="url(#paint2_linear_6307_1524)"/>
<path d="M50.7992 27.0003L42.5444 29.1828C42.2319 29.2893 41.9713 29.5103 41.8153 29.8013C41.6593 30.0923 41.6195 30.4316 41.7037 30.7508C41.788 31.07 41.9902 31.3454 42.2695 31.5214C42.5489 31.6975 42.8846 31.7611 43.2089 31.6994L51.462 29.5151C51.6322 29.4761 51.7928 29.4033 51.9343 29.301C52.0758 29.1987 52.1953 29.0689 52.2857 28.9195C52.376 28.7701 52.4354 28.6039 52.4602 28.4311C52.4851 28.2583 52.4749 28.0822 52.4303 27.9134C52.3858 27.7445 52.3076 27.5864 52.2007 27.4484C52.0937 27.3103 51.9601 27.1952 51.8078 27.1098C51.6555 27.0245 51.4875 26.9707 51.3139 26.9515C51.1404 26.9324 50.9647 26.9484 50.7975 26.9985L50.7992 27.0003Z" fill="url(#paint3_linear_6307_1524)"/>
<path d="M47.1196 22.6248L43.3518 23.6216C43.1769 23.656 43.0109 23.7259 42.8641 23.827C42.7173 23.928 42.5927 24.0581 42.4981 24.2091C42.4035 24.3602 42.3409 24.529 42.314 24.7052C42.2872 24.8814 42.2968 25.0612 42.3421 25.2336C42.3875 25.406 42.4677 25.5672 42.5778 25.7074C42.6879 25.8476 42.8255 25.9637 42.9822 26.0486C43.1389 26.1336 43.3113 26.1855 43.4889 26.2012C43.6664 26.2169 43.8453 26.196 44.0145 26.1399L47.7822 25.1432C47.9571 25.1088 48.1231 25.0388 48.27 24.9378C48.4168 24.8367 48.5413 24.7067 48.6359 24.5556C48.7305 24.4045 48.7932 24.2357 48.82 24.0595C48.8469 23.8833 48.8373 23.7035 48.7919 23.5311C48.7465 23.3587 48.6664 23.1975 48.5563 23.0573C48.4462 22.9171 48.3085 22.801 48.1518 22.7161C47.9951 22.6312 47.8227 22.5793 47.6451 22.5636C47.4676 22.5479 47.2888 22.5687 47.1196 22.6248Z" fill="url(#paint4_linear_6307_1524)"/>
<defs>
<linearGradient id="paint0_linear_6307_1524" x1="69.5299" y1="69.8242" x2="78.5861" y2="78.8804" gradientUnits="userSpaceOnUse">
<stop stop-color="#7C848C"/>
<stop offset="1" stop-color="#161D24"/>
</linearGradient>
<linearGradient id="paint1_linear_6307_1524" x1="48.7147" y1="8.4239" x2="16.4161" y2="46.8269" gradientUnits="userSpaceOnUse">
<stop stop-color="#0DBFBB"/>
<stop offset="1" stop-color="#0F8D8C"/>
</linearGradient>
<linearGradient id="paint2_linear_6307_1524" x1="74.891" y1="74.9166" x2="82.0278" y2="82.0534" gradientUnits="userSpaceOnUse">
<stop stop-color="#7C848C"/>
<stop offset="1" stop-color="#161D24"/>
</linearGradient>
<linearGradient id="paint3_linear_6307_1524" x1="48.4789" y1="23.95" x2="42.6191" y2="32.0893" gradientUnits="userSpaceOnUse">
<stop stop-color="#0DBFBB"/>
<stop offset="1" stop-color="#0F8D8C"/>
</linearGradient>
<linearGradient id="paint4_linear_6307_1524" x1="46.3145" y1="20.9488" x2="42.6285" y2="25.9162" gradientUnits="userSpaceOnUse">
<stop stop-color="#0DBFBB"/>
<stop offset="1" stop-color="#0F8D8C"/>
</linearGradient>
</defs>
</svg>
