<svg width="34" height="15" viewBox="0 0 34 15" fill="none" xmlns="http://www.w3.org/2000/svg">
<path d="M28.8262 14.7168C28.8263 14.7165 28.8263 14.7152 28.8271 14.7139C28.8278 14.7129 28.8287 14.711 28.8301 14.709C28.8269 14.7142 28.8262 14.7168 28.8262 14.7168ZM5.57324 0.750977C6.19728 1.00789 7.35164 1.49134 9.51172 2.39648C10.3678 2.75523 11.1838 3.11105 11.8076 3.39453C12.1199 3.53643 12.3818 3.65865 12.5752 3.75391C12.672 3.80159 12.7487 3.84069 12.8047 3.87109C12.8705 3.90685 12.8824 3.91674 12.8701 3.90723V3.9082C13.0399 4.0398 13.1903 4.15964 13.3135 4.24414C13.4428 4.33285 13.5933 4.41942 13.7803 4.45605C13.9678 4.49281 14.1399 4.46939 14.293 4.43555L14.8252 4.29004C15.3429 4.14301 16.1465 4.0611 16.9805 4.06055C17.8145 4.05999 18.6157 4.14103 19.1299 4.28711L19.9268 4.51367L20.1709 4.58301L20.3701 4.42773L20.8721 4.03711C20.9971 3.93994 21.3397 3.75105 22.0391 3.42871C22.7188 3.1154 23.6914 2.69534 25.0322 2.13379C27.2715 1.19602 28.2813 0.767827 28.7617 0.612305C28.7687 0.610049 28.7757 0.608527 28.7822 0.606445C28.9742 0.978689 29.4392 1.79813 29.8857 2.5625C30.1443 3.00513 30.4027 3.44146 30.6094 3.78223C30.7125 3.9523 30.8043 4.10057 30.877 4.21484C30.9408 4.31534 31.0106 4.42295 31.0615 4.4834C31.0779 4.50279 31.1025 4.53013 31.1348 4.55762C31.1628 4.58151 31.2239 4.62846 31.3135 4.6582C31.4151 4.69194 31.5737 4.70701 31.7305 4.61621C31.8087 4.57084 31.86 4.51154 31.8955 4.45898C32.3082 5.20798 32.7173 5.95313 33.0254 6.52344C33.1855 6.81989 33.3181 7.06742 33.4102 7.24316C33.4219 7.26552 33.4322 7.28698 33.4424 7.30664C33.4376 7.31591 33.4329 7.32607 33.4277 7.33594C33.3462 7.49232 33.2282 7.71657 33.0811 7.99219C32.7867 8.54366 32.3799 9.29784 31.9326 10.1211C31.6316 10.6751 31.3368 11.2227 31.0703 11.7148C31.0525 11.7095 31.0348 11.7017 31.0156 11.6982C30.8725 11.6723 30.7598 11.7137 30.708 11.7373C30.6518 11.763 30.6104 11.7936 30.5869 11.8125C30.5396 11.8507 30.5023 11.8928 30.4785 11.9209C30.3856 12.0309 30.2636 12.2202 30.123 12.4521C29.976 12.6948 29.7901 13.0155 29.5674 13.4131C29.3662 13.7723 29.1798 14.1023 29.042 14.3438C29.0304 14.364 29.0187 14.3834 29.0078 14.4023C28.7689 14.3114 28.4282 14.1742 28.0156 14.002C27.1897 13.6572 26.0896 13.1811 24.9697 12.6865C23.85 12.1921 22.7133 11.6796 21.8145 11.2627C21.3648 11.0541 20.9765 10.8701 20.6807 10.7246C20.3706 10.5722 20.1947 10.4785 20.1426 10.4434L19.6914 10.1387L19.5273 10.0283L19.333 10.0596L18.5215 10.1885C17.5836 10.3382 16.3355 10.3381 15.3799 10.1865L14.627 10.0664L14.4482 10.0381L14.292 10.1309L13.5254 10.5889C13.1354 10.8217 11.9007 11.411 10.7783 11.8936C8.32429 12.9486 5.6531 14.0824 4.91992 14.3848C4.91355 14.375 4.90551 14.3655 4.89844 14.3545C4.83402 14.2539 4.75368 14.1174 4.64551 13.9316C4.27102 13.2885 3.97864 12.7925 3.7627 12.4355C3.557 12.0955 3.39845 11.8437 3.29883 11.7246C3.2836 11.7064 3.26319 11.6832 3.23926 11.6602C3.22084 11.6424 3.17359 11.5981 3.10449 11.5625C3.0667 11.5431 2.91985 11.4753 2.74512 11.5195C2.48787 11.0451 2.2058 10.5231 1.92188 10.002C1.44429 9.12516 1.06962 8.41124 0.819336 7.9043C0.693643 7.64971 0.602535 7.45363 0.545898 7.31836C0.540553 7.30559 0.536701 7.29327 0.532227 7.28223C0.552483 7.2414 0.577005 7.19248 0.605469 7.13672C0.69753 6.9564 0.826838 6.70892 0.981445 6.41699C1.25484 5.90079 1.60496 5.24898 1.96387 4.58691C2.0563 4.7125 2.21039 4.80279 2.39355 4.79688C2.5394 4.79215 2.64101 4.72668 2.67578 4.70312C2.75458 4.64972 2.81209 4.5817 2.83887 4.54883C2.87423 4.50542 2.91028 4.45497 2.94629 4.40234C3.0188 4.29636 3.10793 4.15396 3.21289 3.98047C3.42354 3.63227 3.71504 3.12815 4.0957 2.4668C4.44536 1.85937 4.7699 1.30809 5.01074 0.910156C5.08249 0.791607 5.14784 0.688732 5.20215 0.601562C5.29653 0.63948 5.41804 0.687081 5.57324 0.750977Z" stroke="url(#paint0_linear_6167_4533)"/>
<defs>
<linearGradient id="paint0_linear_6167_4533" x1="0" y1="7.5" x2="34" y2="7.5" gradientUnits="userSpaceOnUse">
<stop stop-color="#6DE1CE"/>
<stop offset="0.490385" stop-color="#288FF6"/>
<stop offset="1" stop-color="#32FFFF"/>
</linearGradient>
</defs>
</svg>
