<svg width="23" height="23" viewBox="0 0 23 23" fill="none" xmlns="http://www.w3.org/2000/svg">
<path d="M7.56032 8.17549C9.42771 10.0432 9.42724 13.0717 7.55963 14.9393L3.47098 19.0279C-0.42747 14.8146 -0.427481 8.2995 3.47098 4.08615L7.56032 8.17549ZM19.0273 19.6425C14.814 23.541 8.2989 23.541 4.08555 19.6425L8.1742 15.5538C10.0419 13.6861 13.0709 13.6861 14.9387 15.5538L19.0273 19.6425ZM19.6426 4.08546C23.5411 8.29881 23.5404 14.8146 19.6419 19.0279L15.5532 14.9393C13.6856 13.0717 13.6852 10.0432 15.5526 8.17549L19.6426 4.08546ZM14.938 7.56092C13.0703 9.4282 10.0425 9.4282 8.17489 7.56092L4.08555 3.47158C8.29891 -0.426872 14.8147 -0.42758 19.028 3.47089L14.938 7.56092Z" fill="#ADBACC"/>
</svg>
