<svg width="22" height="22" viewBox="0 0 22 22" fill="none" xmlns="http://www.w3.org/2000/svg">
<path d="M5.7832 11.4355C8.42435 11.4358 10.5654 13.5775 10.5654 16.2188V22.001C4.82952 21.7783 0.222659 17.1715 0 11.4355H5.7832ZM22 11.4355C21.7773 17.1715 17.1705 21.7783 11.4346 22.001V16.2188C11.4346 13.5774 13.5764 11.4355 16.2178 11.4355H22ZM11.4346 0C17.1705 0.22264 21.7773 4.83049 22 10.5664H16.2178C13.5766 10.5664 11.4348 8.42532 11.4346 5.78418V0ZM10.5654 5.78418C10.5652 8.42517 8.42419 10.5662 5.7832 10.5664H0C0.222672 4.83049 4.82951 0.222652 10.5654 0V5.78418Z" fill="#6DE1CE"/>
</svg>
