<svg width="34" height="16" viewBox="0 0 34 16" fill="none" xmlns="http://www.w3.org/2000/svg">
<path fill-rule="evenodd" clip-rule="evenodd" d="M3.66238 2.71786C2.13622 5.36933 2.09768 5.39544 2.79854 3.30305C3.0992 2.40545 3.33158 1.65775 3.31498 1.64142C3.27305 1.60009 0.0630754 7.50798 0.00126229 7.74014C-0.0301055 7.85829 0.524777 8.98221 1.48314 10.7416C2.32587 12.2885 3.15752 13.8264 3.33138 14.159C3.77811 15.0141 3.73219 14.6712 3.24691 13.5291C2.57127 11.9389 2.7155 12.1112 4.21316 14.6834C4.64606 15.4269 4.7173 15.5019 4.91915 15.4262C5.195 15.3227 8.2346 14.0312 10.976 12.8527C12.0978 12.3704 13.3605 11.77 13.782 11.5183L14.5486 11.0607L15.3018 11.1802C16.3086 11.3399 17.6097 11.3409 18.6004 11.1828L19.4118 11.0531L19.8635 11.3577C20.5537 11.823 29.1262 15.6085 29.2389 15.4977C29.2561 15.4807 29.6002 14.8778 30.0036 14.1577C30.8897 12.576 31.1474 12.2708 30.7685 13.2518C30.122 14.9258 30.0599 15.1646 30.4802 14.3607C30.6252 14.0834 31.4764 12.5081 32.3718 10.86C33.2674 9.21185 34 7.83914 34 7.8096C34 7.71373 30.58 1.51047 30.5457 1.54424C30.5275 1.56218 30.5847 1.77681 30.673 2.02107C31.2713 3.67796 31.6193 4.86911 31.4441 4.66104C31.2463 4.42606 29.3957 1.25815 29.1713 0.770534C29.0022 0.402784 29.281 0.31256 24.8388 2.17288C22.1546 3.2971 20.9228 3.86486 20.5656 4.14248L20.0638 4.53251L19.2669 4.3061C18.1104 3.97746 15.8515 3.97897 14.689 4.30912C13.8119 4.55812 13.9034 4.57606 13.1765 4.01264C12.9869 3.86566 11.4249 3.15587 9.7053 2.43529C5.38648 0.625571 5.07988 0.499358 5.00474 0.500064C4.96835 0.500366 4.36436 1.49837 3.66238 2.71786Z" fill="white"/>
</svg>
