<svg width="330" height="330" viewBox="0 0 330 330" fill="none" xmlns="http://www.w3.org/2000/svg">
<path d="M35.6369 188.563L120.182 117.336C120.518 117.053 120.982 116.976 121.391 117.136L145.524 126.554C146.03 126.752 146.341 127.265 146.28 127.805L132.861 247.698C132.763 248.57 131.793 249.046 131.044 248.589L35.7854 190.505C35.0855 190.078 35.01 189.091 35.6369 188.563Z" fill="#363E44" stroke="#ADBACC" stroke-width="0.5" stroke-dasharray="2 2"/>
<path d="M293.154 201.627L295.674 200.782L295.675 200.783L295.754 201.02L296.93 200.626L297.923 200.989L298.009 200.755L300.157 201.542L300.157 201.541L300.071 201.775L302.22 202.562L302.306 202.328L304.454 203.114L304.455 203.113L304.369 203.347L304.807 203.508L304.51 203.619L304.596 203.854L304.684 204.088L305.302 203.857L305.344 204.469L305.593 204.452L305.721 206.343L305.473 206.36L305.602 208.251L305.851 208.234L305.98 210.126L305.732 210.143L305.861 212.034L306.11 212.017L306.239 213.908L305.991 213.925L306.119 215.817L306.368 215.8L306.498 217.691L306.249 217.708L306.379 219.599L306.626 219.582L306.756 221.474L306.508 221.49L306.637 223.382L306.885 223.365L307.015 225.257L306.766 225.273L306.896 227.164L307.144 227.147L307.273 229.039L307.025 229.056L307.09 230.002C307.118 230.415 306.875 230.799 306.489 230.951L305.556 231.316L305.647 231.549L305.646 231.55L303.781 232.281L303.69 232.048L301.823 232.779L301.915 233.013L300.048 233.744L299.958 233.511L298.093 234.242L298.183 234.476L296.317 235.206L296.226 234.973L294.36 235.705L294.451 235.939L292.585 236.669L292.495 236.437L290.629 237.168L290.719 237.4L288.853 238.133L288.854 238.132L288.763 237.899L286.897 238.631L286.987 238.864L285.122 239.595L285.031 239.362L283.165 240.094L283.256 240.326L283.256 240.327L281.39 241.059L281.391 241.058L281.3 240.825L279.433 241.557L279.524 241.79L277.658 242.522L277.568 242.288L275.702 243.02L275.793 243.253L273.927 243.985L273.836 243.751L271.97 244.483L272.06 244.716L270.195 245.448L270.105 245.214L268.238 245.945L268.329 246.178L266.463 246.91L266.464 246.909L266.373 246.677L264.507 247.409L264.597 247.641L262.731 248.373L262.641 248.14L260.775 248.871L260.866 249.104L260.865 249.105L259 249.836L259.001 249.835L258.909 249.604L257.043 250.334L257.134 250.567L255.268 251.299L255.268 251.299L255.177 251.066L253.312 251.797L253.402 252.031L251.537 252.762L251.445 252.529L249.58 253.26L249.67 253.494L247.805 254.225L247.714 253.992L245.848 254.723L245.939 254.956L244.073 255.688L244.073 255.687L243.982 255.455L242.116 256.186L242.207 256.419L240.341 257.15L240.25 256.917L238.385 257.649L238.476 257.882L238.475 257.882L236.61 258.614L236.61 258.613L236.519 258.381L234.653 259.112L234.743 259.345L232.877 260.077L232.878 260.076L232.787 259.843L230.922 260.575L231.012 260.808L231.012 260.808L229.146 261.54L229.055 261.307L227.189 262.038L227.28 262.272L225.414 263.003L225.324 262.769L223.458 263.5L223.549 263.734L221.682 264.465L221.683 264.464L221.592 264.232L219.726 264.964L219.817 265.198L217.951 265.928L217.86 265.695L215.994 266.426L216.085 266.659L216.085 266.66L214.219 267.391L214.22 267.391L214.129 267.158L212.262 267.89L212.353 268.122L210.487 268.855L210.488 268.854L210.397 268.621L208.531 269.352L208.622 269.585L208.622 269.586L206.756 270.317L206.665 270.083L204.799 270.816L204.89 271.048L204.889 271.049L203.024 271.781L202.934 271.547L201.067 272.278L201.158 272.512L199.292 273.243L199.293 273.242L199.202 273.009L197.336 273.742L197.426 273.975L195.561 274.707L195.47 274.473L193.604 275.204L193.695 275.437L193.694 275.437L191.829 276.169L191.83 276.168L191.739 275.935L189.872 276.667L189.963 276.9L188.097 277.632L188.097 277.631L188.006 277.399L186.141 278.13L186.232 278.363L186.231 278.364L184.366 279.095L184.366 279.094L184.275 278.861L182.409 279.593L182.5 279.826L182.499 279.827L180.634 280.558L180.634 280.557L180.543 280.325L178.677 281.056L178.768 281.29L176.902 282.02L176.902 282.02L176.811 281.788L174.945 282.519L175.036 282.753L173.17 283.484L173.079 283.25L171.214 283.982L171.305 284.214L171.304 284.215L169.439 284.946L169.439 284.946L169.348 284.714L167.482 285.445L167.572 285.677L165.706 286.41L165.707 286.409L165.616 286.176L163.751 286.908L163.841 287.14L163.841 287.141L161.975 287.873L161.976 287.872L161.884 287.639L160.018 288.371L160.109 288.603L160.109 288.604L158.243 289.336L158.244 289.335L158.153 289.102L156.287 289.833L156.378 290.067L154.511 290.798L154.512 290.797L154.421 290.565L152.555 291.297L152.646 291.53L150.78 292.262L150.689 292.028L148.823 292.759L148.915 292.993L147.048 293.724L147.049 293.723L146.957 293.491L145.091 294.222L145.182 294.456L143.317 295.186L143.226 294.954L141.36 295.685L141.451 295.918L141.451 295.919L139.585 296.65L139.586 296.649L139.493 296.417L137.628 297.148L137.719 297.381L135.853 298.113L135.853 298.112L135.763 297.88L135.16 298.116L135.141 297.503L134.892 297.51L134.642 297.517L134.656 297.994L134.237 297.707L134.096 297.914L132.447 296.783L132.588 296.577L130.94 295.447L130.798 295.653L130.797 295.654L129.148 294.524L129.149 294.523L129.29 294.318L127.641 293.188L127.5 293.394L125.85 292.264L125.851 292.264L125.992 292.058L124.343 290.928L124.202 291.134L124.201 291.134L122.553 290.005L122.694 289.798L121.045 288.668L120.904 288.875L119.254 287.745L119.255 287.745L119.396 287.538L117.747 286.409L117.606 286.615L117.605 286.615L115.957 285.485L116.098 285.279L114.449 284.149L114.308 284.355L114.306 284.356L112.658 283.226L112.659 283.225L112.8 283.019L111.151 281.89L111.01 282.095L111.009 282.096L109.361 280.966L109.502 280.76L107.853 279.629L107.712 279.836L107.71 279.836L106.062 278.706L106.063 278.706L106.204 278.5L104.555 277.37L104.413 277.577L102.765 276.447L102.906 276.24L101.257 275.11L101.116 275.317L101.114 275.317L99.4647 274.186L99.466 274.186L99.6077 273.981L97.9588 272.851L97.8166 273.057L96.1664 271.927L96.1677 271.927L96.3099 271.721L94.6602 270.59L94.5188 270.797L94.5175 270.797L92.8694 269.667L93.0108 269.461L91.3619 268.331L91.2206 268.537L89.5703 267.408L89.5717 267.407L89.713 267.201L88.0636 266.072L87.9228 266.277L87.9214 266.278L86.2734 265.148L86.4147 264.942L84.7658 263.811L84.6245 264.018L84.6232 264.018L82.9743 262.888L82.9756 262.888L83.117 262.681L81.4676 261.552L81.3267 261.758L81.3254 261.758L79.6773 260.629L79.8187 260.422L78.1698 259.292L78.0284 259.499L78.0271 259.499L76.3782 258.369L76.3796 258.369L76.5204 258.163L74.8715 257.033L74.7302 257.239L73.0799 256.11L73.0813 256.109L73.2226 255.903L71.5737 254.773L71.4324 254.979L71.431 254.98L69.7822 253.849L69.7835 253.849L69.9243 253.643L68.2755 252.513L68.1341 252.72L66.4839 251.59L66.4852 251.59L66.6266 251.383L64.9777 250.253L64.8363 250.46L64.835 250.46L63.1861 249.33L63.1875 249.33L63.3283 249.124L61.6794 247.994L61.5381 248.201L61.5367 248.201L59.8878 247.071L59.8892 247.07L60.0305 246.864L58.3811 245.735L58.2403 245.94L58.2389 245.941L56.5909 244.811L56.7322 244.605L55.0833 243.475L54.942 243.681L54.9407 243.681L53.2918 242.551L53.2931 242.551L53.4345 242.345L51.7851 241.215L51.6442 241.421L51.6429 241.421L49.9948 240.292L50.1362 240.085L48.4873 238.955L48.3459 239.162L48.3446 239.162L46.6957 238.032L46.6971 238.032L46.8384 237.825L45.189 236.696L45.0477 236.902L43.3974 235.773L43.3988 235.772L43.5401 235.566L41.8912 234.436L41.7499 234.642L41.7485 234.643L40.0997 233.513L40.101 233.512L40.2418 233.307L38.5929 232.177L38.4508 232.383L36.8005 231.253L36.8019 231.252L36.9441 231.047L35.2952 229.916L35.153 230.122L35.1517 230.123L33.5028 228.993L33.5041 228.992L33.6458 228.787L31.9961 227.657L31.8547 227.863L31.8534 227.863L30.2045 226.733L30.2058 226.733L30.3472 226.527L29.5229 225.962C29.3258 225.827 29.1876 225.624 29.1342 225.393L29.1165 225.292L28.9996 224.328L28.7515 224.358L28.517 222.429L28.5183 222.428L28.7659 222.399L28.5322 220.469L28.2846 220.499L28.2833 220.499L28.0496 218.57L28.0509 218.57L28.2985 218.54L28.0648 216.611L27.8172 216.641L27.8159 216.641L27.5822 214.712L27.5835 214.711L27.8316 214.681L27.5979 212.752L27.349 212.782L27.1153 210.852L27.3642 210.822L27.1305 208.893L26.8816 208.923L26.6479 206.994L26.8968 206.964L26.6631 205.035L26.4147 205.064L26.4134 205.064L26.1797 203.135L26.181 203.135L26.4286 203.105L26.3726 202.65L26.7782 202.895L26.9071 202.68L27.0368 202.467L26.528 202.159L27.0585 201.802L26.9182 201.595L26.9174 201.595L28.6267 200.444L28.6275 200.444L28.7664 200.652L30.4751 199.502L30.3349 199.295L32.0433 198.143L32.0441 198.144L32.1843 198.351L33.0376 197.775C33.3442 197.569 33.7438 197.559 34.0603 197.75L34.9236 198.272L35.0534 198.058L35.0526 198.058L36.7806 199.101L36.7815 199.102L36.6517 199.316L38.3811 200.359L38.5095 200.146L40.2376 201.189L40.2381 201.188L40.1092 201.403L41.8373 202.446L41.9662 202.232L41.9653 202.231L43.6942 203.276L43.6951 203.276L43.5653 203.49L45.2942 204.534L45.4231 204.32L45.4223 204.319L47.1504 205.363L47.1512 205.363L47.0223 205.578L48.7504 206.621L48.8793 206.407L48.8784 206.406L50.6082 207.451L50.6087 207.45L50.4789 207.664L52.207 208.708L52.3362 208.495L54.064 209.537L54.0648 209.538L53.9359 209.752L55.664 210.795L55.7929 210.581L55.7921 210.581L57.521 211.625L57.5218 211.625L57.392 211.839L59.1201 212.883L59.2498 212.669L59.249 212.668L60.9771 213.712L60.9779 213.713L60.849 213.927L62.5776 214.97L62.706 214.756L62.7052 214.756L64.4341 215.8L64.4346 215.799L64.3057 216.013L66.0337 217.057L66.1635 216.843L66.1626 216.843L67.8907 217.886L67.8915 217.887L67.7618 218.1L69.4907 219.145L69.6196 218.93L69.6188 218.93L71.3468 219.973L71.3477 219.974L71.2188 220.188L72.9468 221.232L73.0766 221.018L73.0757 221.018L74.8038 222.061L74.8046 222.062L74.6749 222.275L76.4043 223.319L76.5327 223.105L78.2605 224.148L78.2613 224.148L78.1324 224.362L79.8604 225.406L79.9893 225.192L79.9885 225.191L81.7174 226.235L81.7182 226.236L81.5885 226.45L83.3166 227.493L83.4463 227.28L83.4455 227.279L85.1736 228.323L85.1744 228.323L85.0455 228.537L86.7735 229.581L86.9024 229.367L86.9016 229.366L88.6305 230.41L88.6313 230.411L88.5021 230.624L90.2302 231.667L90.3594 231.455L92.0872 232.497L92.088 232.497L91.9591 232.712L93.6871 233.755L93.8161 233.541L93.8152 233.54L95.5433 234.584L95.5441 234.585L95.4152 234.799L97.1433 235.842L97.273 235.629L97.2722 235.628L99.0003 236.672L99.0011 236.672L98.8714 236.886L100.6 237.93L100.729 237.716L100.728 237.715L102.457 238.76L102.458 238.759L102.329 238.973L104.057 240.017L104.187 239.803L104.186 239.802L105.914 240.846L105.915 240.847L105.785 241.06L107.514 242.104L107.643 241.89L107.642 241.89L109.37 242.933L109.371 242.934L109.242 243.148L110.97 244.192L111.099 243.977L111.098 243.977L112.827 245.021L112.828 245.022L112.698 245.235L114.427 246.278L114.556 246.065L116.284 247.107L116.284 247.108L116.156 247.322L117.884 248.366L118.013 248.152L118.012 248.151L119.74 249.195L119.741 249.195L119.612 249.409L121.34 250.453L121.469 250.239L121.469 250.239L123.197 251.282L123.198 251.283L123.069 251.497L124.797 252.541L124.926 252.327L124.925 252.326L126.653 253.37L126.654 253.37L126.525 253.584L128.253 254.627L128.383 254.414L128.382 254.413L130.11 255.457L130.111 255.457L129.981 255.671L131.71 256.715L131.839 256.501L131.838 256.5L133.566 257.544L133.567 257.544L133.438 257.759L134.302 258.28C134.676 258.505 135.131 258.551 135.541 258.404L136.473 258.07L136.389 257.834L136.388 257.834L138.25 257.166L138.25 257.166L138.335 257.402L140.198 256.733L140.113 256.499L140.112 256.498L141.975 255.83L141.976 255.83L142.06 256.065L143.922 255.398L143.838 255.162L143.837 255.161L145.699 254.494L145.7 254.494L145.785 254.729L147.647 254.061L147.562 253.826L149.424 253.157L149.425 253.158L149.509 253.393L151.371 252.725L151.288 252.49L151.287 252.489L153.148 251.821L153.149 251.822L153.234 252.057L155.097 251.389L155.012 251.153L155.011 251.153L156.873 250.486L156.874 250.485L156.958 250.721L158.821 250.052L158.737 249.817L158.736 249.817L160.599 249.148L160.6 249.149L160.683 249.384L162.546 248.716L162.461 248.481L162.46 248.48L164.323 247.813L164.324 247.813L164.408 248.049L166.27 247.38L166.186 247.145L166.185 247.144L168.048 246.476L168.049 246.477L168.133 246.712L169.995 246.044L169.911 245.809L169.91 245.808L171.772 245.14L171.773 245.141L171.858 245.375L173.72 244.708L173.636 244.472L173.635 244.472L175.497 243.805L175.498 243.804L175.582 244.04L177.445 243.372L177.36 243.136L177.359 243.136L179.222 242.467L179.223 242.468L179.307 242.703L181.169 242.035L181.084 241.801L182.947 241.132L182.947 241.132L183.032 241.368L184.894 240.699L184.809 240.464L184.808 240.463L186.671 239.795L186.672 239.795L186.757 240.031L188.618 239.363L188.535 239.128L188.534 239.127L190.396 238.459L190.396 238.46L190.481 238.695L192.344 238.027L192.259 237.791L192.259 237.791L194.121 237.124L194.121 237.123L194.206 237.358L196.068 236.691L195.984 236.455L195.983 236.455L197.845 235.787L197.846 235.788L197.93 236.022L199.793 235.354L199.708 235.119L201.57 234.45L201.571 234.451L201.655 234.686L203.518 234.017L203.433 233.783L203.432 233.782L205.295 233.115L205.296 233.114L205.38 233.35L207.242 232.682L207.158 232.447L207.157 232.446L209.019 231.778L209.02 231.778L209.104 232.014L210.967 231.345L210.883 231.11L210.882 231.109L212.744 230.443L212.745 230.442L212.829 230.677L214.692 230.01L214.607 229.774L214.606 229.774L216.468 229.107L216.469 229.106L216.554 229.341L218.416 228.673L218.331 228.438L220.194 227.769L220.195 227.77L220.279 228.005L222.141 227.337L222.056 227.102L222.055 227.101L223.919 226.434L223.919 226.433L224.004 226.669L225.865 226L225.78 225.766L227.643 225.097L227.644 225.097L227.728 225.333L229.591 224.664L229.506 224.43L229.505 224.429L231.368 223.761L231.453 223.996L233.315 223.329L233.231 223.093L233.23 223.092L235.092 222.426L235.093 222.425L235.178 222.659L237.04 221.992L236.955 221.757L238.817 221.088L238.818 221.089L238.902 221.324L240.764 220.656L240.679 220.421L242.542 219.753L242.543 219.752L242.627 219.988L244.489 219.319L244.404 219.085L246.266 218.416L246.267 218.416L246.352 218.652L248.214 217.983L248.13 217.748L248.129 217.748L249.991 217.08L250.076 217.315L251.939 216.647L251.854 216.412L251.854 216.411L253.716 215.744L253.716 215.744L253.801 215.979L255.664 215.311L255.579 215.076L257.441 214.407L257.442 214.407L257.525 214.643L259.388 213.975L259.303 213.74L261.165 213.071L261.166 213.072L261.251 213.306L263.113 212.638L263.028 212.403L264.89 211.736L264.891 211.735L264.975 211.971L266.837 211.302L266.753 211.067L266.752 211.067L268.615 210.399L268.7 210.634L270.562 209.966L270.478 209.731L270.477 209.73L272.339 209.063L272.34 209.062L272.424 209.298L274.287 208.63L274.202 208.395L276.064 207.726L276.065 207.726L276.149 207.961L278.011 207.294L277.926 207.059L279.789 206.39L279.79 206.39L279.874 206.625L281.736 205.957L281.651 205.722L283.514 205.055L283.514 205.054L283.599 205.289L285.46 204.621L285.377 204.386L285.376 204.386L287.239 203.718L287.323 203.953L289.186 203.285L289.101 203.05L290.963 202.382L291.048 202.617L291.979 202.282L293.234 201.863L293.154 201.627ZM300.868 205.245L300.955 205.48L302.82 204.784L302.645 204.315L300.781 205.011L300.868 205.245ZM297.051 206.402L297.139 206.636L297.226 206.87L299.091 206.175L299.004 205.94L298.916 205.706L297.051 206.402ZM293.409 208.028L293.497 208.262L295.362 207.566L295.187 207.098L293.322 207.793L293.409 208.028ZM289.769 209.652L291.633 208.957L291.546 208.723L291.458 208.488L289.593 209.184L289.769 209.652ZM285.865 210.575L285.952 210.81L286.04 211.044L287.903 210.348L287.817 210.114L287.729 209.88L285.865 210.575ZM282.223 212.201L282.311 212.436L284.175 211.739L284.088 211.505L284 211.271L282.136 211.966L282.223 212.201ZM278.582 213.826L280.446 213.131L280.359 212.897L280.272 212.662L278.407 213.358L278.582 213.826ZM274.765 214.984L274.853 215.218L276.717 214.521L276.63 214.287L276.543 214.054L274.678 214.749L274.765 214.984ZM271.124 216.608L272.988 215.913L272.901 215.679L272.814 215.445L270.949 216.14L271.124 216.608ZM267.221 217.531L267.248 217.604L267.308 217.766L267.395 218L269.259 217.304L269.172 217.069L269.084 216.835L267.221 217.531ZM263.579 219.157L263.666 219.392L265.531 218.695L265.355 218.227L263.492 218.922L263.579 219.157ZM259.85 220.548L259.937 220.782L261.802 220.087L261.714 219.853L261.627 219.618L259.763 220.314L259.85 220.548ZM256.121 221.94L256.208 222.173L258.073 221.477L257.898 221.009L256.034 221.705L256.121 221.94ZM252.392 223.33L252.48 223.564L254.344 222.869L254.169 222.401L252.305 223.096L252.392 223.33ZM248.663 224.721L248.75 224.956L250.615 224.26L250.528 224.025L250.44 223.791L248.576 224.488L248.663 224.721ZM244.934 226.112L245.021 226.347L246.887 225.651L246.711 225.183L244.847 225.878L244.934 226.112ZM241.293 227.738L243.158 227.043L243.07 226.809L242.983 226.574L241.118 227.269L241.293 227.738ZM237.476 228.895L237.564 229.129L239.429 228.434L239.341 228.199L239.254 227.965L237.389 228.66L237.476 228.895ZM233.748 230.286L233.835 230.521L235.7 229.825L235.525 229.357L233.66 230.052L233.748 230.286ZM230.106 231.912L231.971 231.216L231.883 230.982L231.796 230.747L229.931 231.443L230.106 231.912ZM226.29 233.069L226.377 233.303L228.242 232.607L228.155 232.373L228.067 232.139L226.202 232.834L226.29 233.069ZM222.649 234.694L224.513 233.998L224.426 233.765L224.338 233.53L222.473 234.225L222.649 234.694ZM218.744 235.617L218.92 236.085L220.784 235.39L220.697 235.155L220.61 234.921L218.745 235.616L218.744 235.617ZM215.104 237.242L215.191 237.477L217.055 236.78L216.967 236.546L216.881 236.313L215.016 237.008L215.104 237.242ZM211.462 238.868L213.326 238.172L213.238 237.938L213.152 237.703L211.287 238.399L211.462 238.868ZM207.645 240.025L207.733 240.259L209.598 239.563L209.51 239.328L209.422 239.094L207.558 239.79L207.645 240.025ZM203.917 241.416L204.004 241.649L204.005 241.65L205.868 240.954L205.693 240.486L203.829 241.181L203.917 241.416ZM200.188 242.807L200.275 243.041L202.139 242.346L202.052 242.111L201.965 241.877L200.1 242.573L200.188 242.807ZM196.459 244.198L196.546 244.432L198.411 243.736L198.236 243.268L196.372 243.964L196.459 244.198ZM192.73 245.589L192.817 245.823L194.682 245.128L194.594 244.894L194.507 244.659L192.643 245.355L192.73 245.589ZM189.001 246.98L189.088 247.215L190.953 246.519L190.866 246.284L190.778 246.05L188.914 246.746L189.001 246.98ZM185.272 248.371L185.359 248.606L187.224 247.91L187.049 247.442L185.185 248.137L185.272 248.371ZM181.455 249.529L181.543 249.763L181.631 249.997L183.495 249.302L183.408 249.068L183.32 248.833L181.455 249.529ZM177.814 251.154L177.902 251.388L179.767 250.692L179.591 250.224L177.727 250.919L177.814 251.154ZM174.173 252.779L176.038 252.084L175.862 251.616L173.998 252.311L174.173 252.779ZM170.269 253.702L170.444 254.171L172.308 253.475L172.222 253.24L172.134 253.006L170.269 253.701L170.269 253.702ZM166.628 255.327L166.715 255.562L168.579 254.866L168.493 254.632L168.405 254.398L166.54 255.093L166.628 255.327ZM162.986 256.953L164.85 256.257L164.764 256.024L164.676 255.789L162.811 256.485L162.986 256.953ZM159.17 258.11L159.257 258.344L161.122 257.648L161.034 257.414L160.947 257.18L159.083 257.875L159.17 258.11ZM134.584 295.581L134.835 295.574L135.085 295.567L135.027 293.631L134.777 293.638L134.527 293.645L134.584 295.581ZM155.529 259.735L157.393 259.039L157.305 258.805L157.218 258.572L155.354 259.267L155.529 259.735ZM134.469 291.709L134.969 291.694L134.912 289.758L134.662 289.766L134.411 289.773L134.469 291.709ZM151.8 261.127L153.664 260.431L153.577 260.196L153.489 259.962L151.625 260.658L151.8 261.127ZM134.355 287.837L134.604 287.829L134.854 287.822L134.796 285.886L134.296 285.901L134.355 287.837ZM147.984 262.283L148.071 262.518L149.935 261.822L149.76 261.353L147.896 262.049L147.984 262.283ZM134.24 283.965L134.489 283.958L134.739 283.95L134.681 282.013L134.182 282.029L134.24 283.965ZM144.255 263.675L144.342 263.908L144.342 263.909L146.206 263.213L146.119 262.979L146.031 262.744L144.167 263.441L144.255 263.675ZM134.124 280.093L134.374 280.085L134.624 280.078L134.566 278.142L134.317 278.149L134.067 278.156L134.124 280.093ZM140.526 265.066L140.612 265.3L142.477 264.605L142.39 264.37L142.302 264.136L140.439 264.831L140.526 265.066ZM134.009 276.22L134.509 276.205L134.451 274.27L134.202 274.277L133.951 274.284L134.009 276.22ZM136.796 266.456L136.883 266.691L138.749 265.995L138.573 265.527L136.709 266.223L136.796 266.456ZM133.894 272.348L134.394 272.333L134.336 270.397L133.836 270.412L133.894 272.348ZM133.027 267.204L133.754 267.644L133.779 268.475L134.029 268.468L134.279 268.461L134.254 267.672L135.02 267.387L134.932 267.153L134.845 266.918L134.025 267.224L133.286 266.776L133.027 267.204ZM129.783 264.949L129.654 265.162L131.341 266.183L131.471 265.969L131.6 265.755L129.913 264.735L129.783 264.949ZM126.281 263.12L127.968 264.142L128.098 263.928L128.226 263.714L126.541 262.693L126.281 263.12ZM122.908 261.079L124.595 262.1L124.724 261.887L124.853 261.672L123.167 260.652L122.908 261.079ZM119.535 259.038L121.222 260.058L121.352 259.844L121.481 259.63L119.794 258.61L119.535 259.038ZM116.162 256.996L117.849 258.017L117.979 257.803L118.108 257.589L116.422 256.568L116.162 256.996ZM112.789 254.954L114.476 255.976L114.605 255.762L114.734 255.548L113.048 254.527L112.789 254.954ZM109.416 252.913L111.103 253.934L111.233 253.72L111.362 253.506L109.675 252.486L109.416 252.913ZM106.043 250.871L107.73 251.892L107.86 251.679L107.989 251.464L106.303 250.443L106.043 250.871ZM102.67 248.83L104.357 249.851L104.486 249.637L104.615 249.423L102.929 248.402L102.67 248.83ZM99.2968 246.788L100.984 247.809L101.113 247.595L101.243 247.381L99.5563 246.361L99.2968 246.788ZM95.9242 244.746L97.6109 245.768L97.7399 245.553L97.8696 245.34L96.1837 244.319L95.9242 244.746ZM92.551 242.705L94.2378 243.726L94.3667 243.512L94.4964 243.298L92.8105 242.278L92.551 242.705ZM89.1779 240.664L90.8651 241.684L90.9941 241.47L91.1238 241.256L89.4374 240.236L89.1779 240.664ZM85.8052 238.622L87.492 239.643L87.6209 239.429L87.7506 239.215L86.0647 238.194L85.8052 238.622ZM82.4321 236.58L84.1188 237.602L84.2477 237.387L84.3775 237.174L82.6916 236.153L82.4321 236.58ZM79.0589 234.539L80.7462 235.559L80.8751 235.345L81.0048 235.132L79.3184 234.112L79.0589 234.539ZM75.6863 232.497L77.373 233.518L77.5019 233.304L77.6317 233.09L75.9458 232.069L75.6863 232.497ZM72.3131 230.456L73.9998 231.477L74.1288 231.263L74.2585 231.049L72.5726 230.028L72.3131 230.456ZM69.0697 228.201L68.94 228.414L70.6272 229.435L70.7561 229.221L70.8859 229.007L69.1986 227.986L69.0697 228.201ZM65.6971 226.158L65.5673 226.372L67.254 227.393L67.383 227.179L67.5127 226.966L65.8268 225.945L65.6971 226.158ZM62.3239 224.117L62.1941 224.331L63.8809 225.352L64.0098 225.138L64.1395 224.924L62.4528 223.903L62.3239 224.117ZM58.9507 222.076L58.821 222.29L60.5082 223.31L60.6372 223.096L60.7669 222.882L59.0796 221.862L58.9507 222.076ZM55.5781 220.034L55.4483 220.247L57.1351 221.269L57.264 221.055L57.3937 220.841L55.707 219.82L55.5781 220.034ZM52.2049 217.992L52.0752 218.206L53.7619 219.228L53.8908 219.013L54.0206 218.8L52.3338 217.778L52.2049 217.992ZM48.8318 215.951L48.702 216.165L50.3893 217.185L50.5182 216.971L50.6479 216.757L48.9607 215.737L48.8318 215.951ZM45.4591 213.909L45.3294 214.123L47.0161 215.144L47.145 214.93L47.2748 214.716L45.588 213.695L45.4591 213.909ZM42.086 211.868L41.9562 212.082L43.643 213.103L43.7719 212.889L43.9016 212.675L42.2149 211.654L42.086 211.868ZM38.7128 209.827L38.5831 210.04L40.2703 211.061L40.3992 210.846L40.529 210.633L38.8417 209.612L38.7128 209.827ZM35.3402 207.784L35.2104 207.998L36.8971 209.019L37.0261 208.805L37.1558 208.591L35.4691 207.57L35.3402 207.784ZM31.967 205.743L31.8373 205.957L33.524 206.978L33.6529 206.764L33.7826 206.55L32.0959 205.529L31.967 205.743ZM28.5938 203.702L28.4641 203.916L30.1513 204.936L30.2803 204.722L30.41 204.508L28.7227 203.488L28.5938 203.702Z" fill="#CFDAE5" fill-opacity="0.04" stroke="#ADBACC" stroke-width="0.5" stroke-dasharray="2 2"/>
<path d="M137.35 250.007L150.127 129.137C150.18 128.633 150.544 128.217 151.036 128.097L168.164 123.934C168.321 123.896 168.47 123.826 168.6 123.728L176.029 118.165C176.288 117.971 176.614 117.89 176.934 117.94L186.244 119.401C186.47 119.436 186.681 119.535 186.853 119.687L206.898 137.41C206.966 137.47 207.027 137.538 207.079 137.612L214.095 147.433C214.345 147.784 214.765 147.973 215.194 147.929L226.518 146.769C226.813 146.738 227.109 146.819 227.349 146.994L292.635 194.822C293.412 195.392 293.235 196.599 292.326 196.921L138.944 251.264C138.112 251.559 137.257 250.885 137.35 250.007Z" fill="#CFDAE5" fill-opacity="0.04" stroke="#ADBACC" stroke-width="0.5" stroke-dasharray="2 2"/>
<path d="M83.1879 69.5072C72.0377 73.498 61.2328 82.46 42.869 95.1631C31.404 103.094 31.6547 123.439 30.2093 135.426C30.1358 136.036 30.1694 136.659 30.4325 137.214C36.3597 149.718 81.7176 148.511 103.685 127.288C104.094 126.893 104.414 126.402 104.51 125.841C104.942 123.339 103.35 122.064 102.667 120.48C100.549 115.569 98.1923 110.305 97.5195 105.505C96.5892 98.8673 103.301 94.9413 109.847 93.5027L152.764 84.0706L204.923 72.6076C205.336 72.5167 205.711 72.8712 205.644 73.2891L203.616 85.8661C203.165 88.6644 204.728 91.4153 207.416 92.3127C229.508 99.6865 250.06 98.2192 266.897 92.8706C267.68 92.6221 268.186 91.867 268.11 91.0496C267.381 83.13 264.913 75.064 253.831 62.7654C245.808 55.5039 223.699 48.9202 207.309 46.7508C169.135 46.997 132.19 51.9689 83.1879 69.5072Z" fill="#CFDAE5" fill-opacity="0.04" stroke="#ADBACC" stroke-width="0.5" stroke-dasharray="2 2"/>
<path fill-rule="evenodd" clip-rule="evenodd" d="M149.343 123.778L125.165 114.802C124.635 114.606 124.646 113.854 125.18 113.672L132.212 111.278C133.093 110.978 133.859 110.394 134.351 109.603C136.662 105.88 136.508 104.678 135.975 100.507C135.896 99.8883 135.808 99.204 135.719 98.4364L115.705 93.2749C115.099 93.1186 115.107 92.2556 115.715 92.1103L118.691 91.3995L129.012 92.7876L128.762 89.1961L127.619 72.7359L135.017 71.0189L142.026 72.3364C142.287 73.079 142.545 73.8194 142.8 74.5549C144.085 78.2467 145.326 81.8163 146.81 84.9352C147.385 86.1442 148.208 87.4373 148.884 88.5001C149.539 89.5294 150.548 90.3154 151.726 90.6322L157.339 92.1415C158.283 92.3953 159.263 92.4898 160.238 92.4248C161.075 92.3691 161.887 92.3168 162.676 92.2659L162.677 92.2658L162.677 92.2658C174.717 91.4891 181.513 91.0507 191.981 84.2406C194.542 82.5747 196.201 79.8531 196.756 76.8492L199.552 61.7219C199.582 61.5566 199.47 61.399 199.304 61.374L194.416 60.2767L202.051 59.1529C202.12 59.1428 202.191 59.1447 202.259 59.1587L207.646 60.2598L208.996 79.6835C209.111 81.3393 208.24 82.9075 206.773 83.6851L188.302 93.4803L177.798 98.1193C177.407 105.233 179.908 108.087 182.686 109.994C182.788 110.064 182.901 110.116 183.021 110.151L189.893 112.143C190.483 112.314 190.466 113.155 189.87 113.302L176.672 116.542L164.011 120.429L149.689 123.8C149.574 123.827 149.454 123.82 149.343 123.778ZM183.536 78.3327C183.214 78.4494 182.881 78.5384 182.543 78.5982C182.881 78.5383 183.213 78.4494 183.536 78.3327ZM191.458 75.0403C191.342 75.355 191.086 75.5968 190.77 75.711C191.086 75.5962 191.341 75.3555 191.458 75.0403Z" fill="#1E262D"/>
<path d="M118.691 91.3995L129.012 92.7876L128.762 89.1961L118.691 91.3995Z" fill="#1E262D"/>
<path d="M148.884 88.5001C149.539 89.5294 150.548 90.3154 151.726 90.6322L157.339 92.1415C158.283 92.3953 159.263 92.4898 160.238 92.4248C161.075 92.3691 161.887 92.3168 162.676 92.2659L162.677 92.2658L162.677 92.2658C174.717 91.4891 181.513 91.0507 191.981 84.2406C194.542 82.5747 196.201 79.8531 196.756 76.8492L199.552 61.7219C199.582 61.5566 199.47 61.399 199.304 61.374L194.416 60.2767C192.975 68.7099 192.374 72.5516 191.458 75.0403C191.342 75.355 191.086 75.5968 190.77 75.711L190.769 75.7116L183.538 78.3317L183.536 78.3327C183.214 78.4494 182.881 78.5384 182.543 78.5982L182.542 78.5985L146.81 84.9352C147.385 86.1442 148.208 87.4373 148.884 88.5001Z" fill="#1E262D"/>
<path d="M135.719 98.4364L134.028 74.0949M135.719 98.4364C149.77 101.57 159.709 101.782 177.798 98.1193M135.719 98.4364L115.705 93.2749M135.719 98.4364C135.808 99.204 135.896 99.8883 135.975 100.507C136.508 104.678 136.662 105.88 134.351 109.603M118.691 91.3995L129.012 92.7876M118.691 91.3995L128.762 89.1961M118.691 91.3995L115.715 92.1103M129.012 92.7876L127.619 72.7359M129.012 92.7876L128.762 89.1961M127.619 72.7359L134.028 74.0949M127.619 72.7359L135.017 71.0189L142.026 72.3364M127.619 72.7359L128.762 89.1961M134.028 74.0949L142.026 72.3364M142.026 72.3364C142.287 73.079 142.545 73.8194 142.8 74.5549C144.085 78.2467 145.326 81.8163 146.81 84.9352M194.416 60.2767L199.304 61.374M194.416 60.2767C192.975 68.7099 192.374 72.5516 191.458 75.0403M194.416 60.2767L202.051 59.1529M207.646 60.2598L199.304 61.374M207.646 60.2598L202.259 59.1587M207.646 60.2598L208.996 79.6835M199.304 61.374V61.374C199.47 61.399 199.582 61.5566 199.552 61.7219L196.756 76.8492C196.201 79.8531 194.542 82.5747 191.981 84.2406C181.513 91.0507 174.717 91.4891 162.677 92.2658L162.677 92.2658L162.676 92.2659C161.887 92.3168 161.075 92.3691 160.238 92.4248C159.263 92.4898 158.283 92.3953 157.339 92.1415L151.726 90.6322C150.548 90.3154 149.539 89.5294 148.884 88.5001V88.5001C148.208 87.4373 147.385 86.1442 146.81 84.9352M177.798 98.1193L188.302 93.4802L206.773 83.6851M177.798 98.1193C177.407 105.233 179.908 108.087 182.686 109.994M146.81 84.9352L182.542 78.5985L182.543 78.5982M149.343 123.778L125.165 114.802M149.343 123.778C149.454 123.82 149.574 123.827 149.689 123.8M149.343 123.778V123.778C149.454 123.82 149.574 123.827 149.689 123.8V123.8M125.165 114.802C124.635 114.606 124.646 113.854 125.18 113.672M125.165 114.802V114.802C124.635 114.606 124.646 113.854 125.18 113.672V113.672M125.18 113.672L132.212 111.278M132.212 111.278C133.093 110.978 133.859 110.394 134.351 109.603M132.212 111.278V111.278C133.093 110.978 133.859 110.394 134.351 109.603V109.603M115.705 93.2749C115.099 93.1186 115.107 92.2556 115.715 92.1103M115.705 93.2749V93.2749C115.099 93.1186 115.107 92.2556 115.715 92.1103V92.1103M191.458 75.0403V75.0403C191.342 75.355 191.086 75.5968 190.77 75.711V75.711M191.458 75.0403C191.341 75.3555 191.086 75.5962 190.77 75.711M202.051 59.1529C202.12 59.1428 202.191 59.1447 202.259 59.1587M202.051 59.1529V59.1529C202.12 59.1428 202.191 59.1447 202.259 59.1587V59.1587M208.996 79.6835C209.111 81.3393 208.24 82.9075 206.773 83.6851M208.996 79.6835V79.6835C209.111 81.3393 208.24 82.9075 206.773 83.6851V83.6851M182.686 109.994C182.788 110.064 182.901 110.116 183.021 110.151M182.686 109.994V109.994C182.788 110.064 182.902 110.116 183.021 110.151V110.151M183.021 110.151L189.893 112.143M189.893 112.143C190.483 112.314 190.466 113.155 189.87 113.302M189.893 112.143V112.143C190.483 112.314 190.466 113.155 189.87 113.302V113.302M189.87 113.302L176.672 116.542L164.011 120.429L149.689 123.8M182.543 78.5982V78.5982C182.881 78.5384 183.214 78.4494 183.536 78.3327V78.3327M182.543 78.5982C182.881 78.5383 183.213 78.4494 183.536 78.3327M183.536 78.3327L183.538 78.3317L190.769 75.7116L190.77 75.711" stroke="#ADBACC" stroke-width="0.5" stroke-dasharray="2 2"/>
<path d="M199.225 116.757C199.852 116.996 200.476 117.253 201.097 117.525L200.998 117.753C201.609 118.021 202.217 118.304 202.822 118.603L202.93 118.38C203.532 118.677 204.129 118.991 204.723 119.319L204.604 119.535C205.188 119.858 205.767 120.197 206.342 120.549L206.471 120.337C207.043 120.687 207.61 121.053 208.172 121.432L208.034 121.637C208.588 122.011 209.136 122.398 209.678 122.799L209.824 122.6C210.364 123 210.898 123.412 211.425 123.838L211.27 124.031C211.789 124.45 212.302 124.884 212.808 125.329L212.971 125.143C213.475 125.586 213.972 126.042 214.462 126.511L214.291 126.69C214.773 127.151 215.248 127.625 215.716 128.111L215.894 127.939C216.359 128.423 216.817 128.918 217.267 129.425L217.083 129.59C217.526 130.089 217.961 130.6 218.388 131.123L218.579 130.965C219.004 131.485 219.421 132.015 219.829 132.556L219.829 132.556L219.63 132.706C219.831 132.974 220.032 133.245 220.23 133.519C220.428 133.793 220.622 134.068 220.813 134.344L221.017 134.201C221.403 134.759 221.775 135.321 222.135 135.887L221.926 136.02C222.288 136.589 222.637 137.163 222.972 137.74L223.186 137.616C223.526 138.203 223.852 138.793 224.165 139.387L223.946 139.503C224.261 140.099 224.562 140.699 224.848 141.301L225.071 141.195C225.362 141.807 225.639 142.422 225.902 143.04L225.675 143.136C225.939 143.757 226.189 144.38 226.424 145.005L226.655 144.918C226.894 145.552 227.118 146.188 227.328 146.826L227.093 146.903C227.304 147.544 227.5 148.186 227.681 148.828L227.918 148.762C228.102 149.414 228.27 150.067 228.424 150.72L228.182 150.777C228.336 151.433 228.476 152.089 228.599 152.745L228.841 152.7C228.966 153.366 229.076 154.032 229.17 154.697L228.925 154.73C229.019 155.398 229.097 156.064 229.159 156.729L229.406 156.706C229.469 157.38 229.517 158.053 229.547 158.724L229.299 158.736C229.33 159.409 229.344 160.079 229.343 160.747L229.592 160.746C229.59 161.424 229.569 162.098 229.534 162.769L229.287 162.756C229.252 163.428 229.2 164.097 229.13 164.76L229.375 164.785C229.305 165.459 229.217 166.128 229.112 166.792L228.869 166.752C228.764 167.417 228.641 168.076 228.501 168.728L228.743 168.779C228.601 169.442 228.442 170.097 228.265 170.745L228.026 170.68C227.848 171.328 227.652 171.969 227.439 172.601L227.673 172.681C227.456 173.322 227.222 173.954 226.97 174.578L226.741 174.485C226.489 175.107 226.219 175.719 225.931 176.322L226.155 176.43C225.864 177.039 225.553 177.637 225.225 178.225L225.008 178.104C224.682 178.689 224.337 179.263 223.974 179.824L224.181 179.959C223.815 180.525 223.431 181.079 223.028 181.62L222.83 181.472C222.431 182.008 222.014 182.531 221.578 183.04L221.767 183.203C221.33 183.714 220.873 184.21 220.4 184.693L220.224 184.521C219.758 184.997 219.274 185.458 218.773 185.904L218.937 186.09C218.436 186.536 217.918 186.967 217.382 187.383L217.231 187.187C216.967 187.392 216.698 187.593 216.426 187.79C216.153 187.986 215.879 188.178 215.602 188.365L215.739 188.57C215.177 188.948 214.604 189.305 214.023 189.64L213.9 189.426C213.318 189.761 212.728 190.076 212.13 190.37L212.238 190.59C211.631 190.888 211.016 191.166 210.394 191.42L210.299 191.19C209.679 191.443 209.052 191.675 208.418 191.885L208.495 192.121C207.855 192.333 207.208 192.523 206.556 192.693L206.494 192.454C205.847 192.622 205.194 192.77 204.536 192.896L204.582 193.14C203.921 193.267 203.256 193.374 202.586 193.46L202.554 193.212C201.892 193.297 201.225 193.361 200.556 193.405L200.571 193.651C199.9 193.695 199.225 193.719 198.549 193.723L198.548 193.476C197.881 193.48 197.211 193.464 196.54 193.429L196.525 193.678C195.854 193.643 195.182 193.588 194.509 193.515L194.536 193.268C193.874 193.196 193.21 193.105 192.546 192.996L192.506 193.24C191.843 193.132 191.18 193.005 190.518 192.861L190.572 192.619C189.921 192.476 189.27 192.316 188.621 192.139L188.554 192.378C187.906 192.201 187.26 192.008 186.616 191.797L186.695 191.561C186.061 191.353 185.429 191.128 184.8 190.888L184.709 191.121C184.082 190.881 183.458 190.624 182.837 190.352L182.939 190.124C182.327 189.856 181.719 189.573 181.115 189.274L181.005 189.497C180.403 189.199 179.805 188.886 179.212 188.558L179.333 188.341C178.748 188.019 178.168 187.68 177.593 187.328L177.464 187.54C176.892 187.189 176.325 186.823 175.763 186.444L175.902 186.24C175.349 185.866 174.8 185.479 174.258 185.078L174.11 185.277C173.57 184.877 173.037 184.464 172.51 184.038L172.667 183.846C172.147 183.426 171.634 182.994 171.128 182.548L170.964 182.734C170.46 182.29 169.963 181.834 169.473 181.365L169.645 181.187C169.163 180.725 168.688 180.252 168.22 179.766L168.041 179.937C167.576 179.454 167.118 178.959 166.668 178.452L166.854 178.287C166.411 177.788 165.976 177.276 165.549 176.754L165.356 176.911C164.932 176.392 164.514 175.862 164.107 175.32L164.306 175.171L163.707 174.358C163.509 174.085 163.314 173.809 163.123 173.533L162.918 173.675C162.532 173.118 162.16 172.556 161.8 171.989L162.01 171.857C161.648 171.287 161.3 170.714 160.965 170.136L160.749 170.26C160.409 169.674 160.083 169.083 159.77 168.49L159.989 168.375C159.675 167.778 159.375 167.178 159.088 166.575L158.864 166.682C158.573 166.07 158.296 165.454 158.033 164.837L158.261 164.74C157.997 164.12 157.748 163.497 157.512 162.872L157.28 162.959C157.041 162.325 156.816 161.689 156.607 161.052L156.842 160.974C156.632 160.334 156.437 159.691 156.256 159.048L156.018 159.116C155.834 158.463 155.665 157.81 155.511 157.156L155.753 157.101C155.599 156.444 155.461 155.787 155.338 155.131L155.094 155.177C154.969 154.511 154.859 153.845 154.765 153.18L155.012 153.146C154.918 152.479 154.84 151.812 154.778 151.148L154.528 151.172C154.465 150.497 154.418 149.824 154.387 149.153L154.637 149.141C154.606 148.468 154.591 147.798 154.593 147.131L154.343 147.13C154.345 146.453 154.365 145.779 154.401 145.109L154.649 145.121C154.684 144.448 154.737 143.78 154.806 143.117L154.559 143.092C154.629 142.418 154.718 141.749 154.823 141.086L155.068 141.124C155.173 140.46 155.295 139.801 155.435 139.149L155.191 139.098C155.333 138.435 155.492 137.78 155.669 137.132L155.911 137.197C156.088 136.549 156.284 135.908 156.497 135.276L156.262 135.197C156.478 134.555 156.713 133.923 156.965 133.299L157.195 133.392C157.447 132.77 157.717 132.157 158.005 131.555L157.78 131.447C158.071 130.837 158.382 130.239 158.71 129.651L158.928 129.773C159.255 129.188 159.6 128.614 159.963 128.053L159.754 127.918C160.12 127.352 160.504 126.797 160.907 126.256L161.107 126.405C161.506 125.869 161.923 125.346 162.358 124.837L162.168 124.674C162.605 124.162 163.062 123.667 163.535 123.184L163.711 123.356C164.177 122.88 164.662 122.419 165.163 121.972L164.998 121.787C165.499 121.341 166.017 120.909 166.553 120.494L166.705 120.69C166.969 120.485 167.237 120.285 167.51 120.088C167.782 119.891 168.057 119.699 168.335 119.512L168.196 119.306C168.759 118.928 169.331 118.572 169.912 118.236L170.037 118.451C170.618 118.115 171.208 117.801 171.806 117.508L171.697 117.286C172.305 116.989 172.919 116.711 173.541 116.456L173.637 116.687C174.257 116.434 174.885 116.202 175.519 115.992L175.44 115.756C176.08 115.543 176.727 115.353 177.379 115.183L177.443 115.423C178.09 115.255 178.743 115.107 179.4 114.981L179.353 114.737C180.014 114.61 180.68 114.502 181.35 114.417L181.382 114.664C182.045 114.58 182.711 114.516 183.381 114.472L183.364 114.225C184.035 114.181 184.709 114.158 185.386 114.154L185.389 114.401C186.056 114.397 186.726 114.413 187.397 114.448L187.409 114.199C188.08 114.234 188.752 114.289 189.426 114.362L189.399 114.609C190.062 114.681 190.726 114.772 191.39 114.88L191.429 114.636C192.092 114.745 192.754 114.872 193.416 115.017L193.364 115.258C194.016 115.4 194.666 115.561 195.316 115.738L195.381 115.499C196.028 115.676 196.675 115.869 197.319 116.08L197.241 116.317C197.875 116.524 198.507 116.749 199.137 116.989L199.225 116.757Z" stroke="#ADBACC" stroke-width="0.5" stroke-dasharray="2 2"/>
<path d="M169.587 118.626C184.17 108.09 206.972 114.743 220.515 133.487C234.058 152.231 233.214 175.968 218.631 186.504C204.047 197.041 181.246 190.388 167.703 171.644C154.16 152.9 155.004 129.163 169.587 118.626ZM204.144 176.964C201.963 173.994 197.944 173.025 195.166 174.8C192.388 176.576 191.904 180.423 194.084 183.394C196.264 186.365 200.284 187.334 203.062 185.558C205.839 183.783 206.324 179.935 204.144 176.964ZM216.908 174.041C214.728 171.07 210.898 169.98 208.354 171.606C205.81 173.232 205.515 176.959 207.695 179.93C209.876 182.901 213.706 183.991 216.25 182.365C218.794 180.739 219.089 177.011 216.908 174.041ZM189.741 171.997C187.571 169.04 183.447 168.154 180.529 170.019C177.612 171.884 177.007 175.793 179.177 178.75C181.347 181.706 185.47 182.592 188.388 180.727C191.305 178.862 191.911 174.953 189.741 171.997ZM224.951 164.838C222.771 161.868 218.941 160.778 216.397 162.404C213.853 164.03 213.558 167.757 215.738 170.728C217.919 173.699 221.749 174.789 224.293 173.163C226.837 171.536 227.131 167.809 224.951 164.838ZM178.603 160.93C176.459 158.01 172.494 157.066 169.746 158.823C166.998 160.579 166.508 164.37 168.65 167.291C170.794 170.211 174.759 171.154 177.507 169.398C180.255 167.641 180.745 163.85 178.603 160.93ZM209.185 143.803C204.98 135.124 195.497 131.031 188.005 134.661C180.512 138.29 177.847 148.269 182.052 156.948C186.256 165.627 195.738 169.72 203.23 166.09C210.723 162.461 213.389 152.482 209.185 143.803ZM225.962 151.522C223.782 148.551 220.14 147.34 217.83 148.817C215.52 150.294 215.415 153.899 217.595 156.87C219.775 159.84 223.415 161.051 225.726 159.575C228.036 158.098 228.142 154.493 225.962 151.522ZM172.762 146.385C170.549 143.37 166.556 142.331 163.844 144.064C161.132 145.797 160.728 149.648 162.941 152.664C165.155 155.679 169.147 156.718 171.858 154.985C174.57 153.251 174.975 149.401 172.762 146.385ZM220.991 137.673C218.885 134.804 215.304 133.674 212.994 135.151C210.684 136.628 210.519 140.152 212.625 143.022C214.731 145.892 218.312 147.021 220.622 145.544C222.932 144.068 223.098 140.543 220.991 137.673ZM174.993 133.276C172.815 130.308 168.813 129.332 166.054 131.095C163.295 132.859 162.824 136.694 165.002 139.663C167.18 142.631 171.183 143.608 173.942 141.844C176.701 140.081 177.172 136.244 174.993 133.276ZM183.687 124.004C181.602 121.164 177.808 120.208 175.212 121.867C172.617 123.526 172.203 127.173 174.287 130.013C176.372 132.853 180.165 133.811 182.761 132.152C185.356 130.493 185.771 126.845 183.687 124.004Z" fill="url(#paint0_linear_6382_10603)"/>
<path d="M219.144 207.45C219.473 207.376 219.805 207.339 220.135 207.336L220.135 207.337L220.135 207.437C220.462 207.435 220.788 207.468 221.106 207.533L221.126 207.436C221.451 207.503 221.769 207.605 222.075 207.736L222.037 207.828C222.335 207.955 222.622 208.114 222.893 208.299L222.948 208.216C223.22 208.402 223.477 208.616 223.714 208.854L223.645 208.924C223.872 209.153 224.08 209.406 224.266 209.68L224.348 209.624C224.532 209.895 224.695 210.186 224.832 210.496L224.833 210.496L224.741 210.536C224.806 210.684 224.867 210.836 224.92 210.992C224.973 211.149 225.018 211.306 225.056 211.464L225.152 211.439C225.232 211.768 225.28 212.098 225.299 212.425L225.201 212.431C225.221 212.762 225.209 213.089 225.168 213.409L225.266 213.421C225.223 213.755 225.15 214.08 225.047 214.394L224.954 214.364C224.852 214.676 224.721 214.976 224.563 215.259L224.648 215.306C224.485 215.597 224.295 215.871 224.077 216.123L224.003 216.059C223.791 216.305 223.552 216.53 223.292 216.727L223.351 216.806C223.089 217.005 222.805 217.178 222.499 217.32L222.456 217.229C222.31 217.296 222.159 217.357 222.004 217.41C221.848 217.463 221.69 217.507 221.533 217.543L221.555 217.64L221.55 217.642C221.222 217.715 220.892 217.751 220.565 217.753L220.565 217.654C220.238 217.656 219.912 217.623 219.593 217.557L219.573 217.654C219.247 217.586 218.929 217.485 218.623 217.354L218.662 217.264C218.365 217.136 218.078 216.978 217.807 216.792L217.75 216.873C217.478 216.687 217.221 216.474 216.984 216.235L217.055 216.166C216.828 215.937 216.619 215.684 216.433 215.411L216.351 215.466C216.167 215.195 216.004 214.904 215.867 214.594L215.959 214.555C215.893 214.407 215.833 214.255 215.78 214.098C215.727 213.942 215.682 213.785 215.644 213.628L215.546 213.651C215.466 213.322 215.418 212.992 215.399 212.665L215.498 212.659C215.479 212.329 215.49 212.001 215.531 211.681L215.433 211.668C215.475 211.335 215.548 211.009 215.651 210.696L215.746 210.728C215.848 210.415 215.979 210.115 216.137 209.832L216.05 209.784C216.213 209.492 216.404 209.218 216.621 208.967L216.696 209.032C216.909 208.786 217.147 208.562 217.408 208.364L217.347 208.285L217.346 208.284C217.608 208.085 217.894 207.913 218.201 207.771L218.243 207.862C218.389 207.794 218.541 207.733 218.697 207.68C218.853 207.627 219.01 207.583 219.167 207.548L219.144 207.45Z" stroke="#ADBACC" stroke-width="0.2" stroke-dasharray="1 1"/>
<path d="M219.744 207.33C220.06 207.263 220.38 207.238 220.698 207.249L220.695 207.348C221.006 207.358 221.316 207.406 221.62 207.487L221.645 207.392C221.951 207.474 222.25 207.589 222.538 207.735L222.494 207.824C222.77 207.964 223.035 208.133 223.286 208.328L223.347 208.249C223.596 208.442 223.831 208.661 224.049 208.902L223.975 208.968C224.182 209.198 224.374 209.448 224.546 209.718L224.628 209.666C224.796 209.931 224.947 210.213 225.076 210.513L224.986 210.552C225.047 210.695 225.103 210.842 225.154 210.993C225.205 211.143 225.251 211.294 225.289 211.445L225.384 211.42C225.465 211.736 225.518 212.052 225.545 212.366L225.448 212.375C225.477 212.693 225.477 213.008 225.453 213.316L225.551 213.324C225.526 213.648 225.472 213.964 225.393 214.269L225.297 214.244C225.216 214.552 225.109 214.848 224.976 215.126L225.064 215.168C224.924 215.461 224.757 215.734 224.564 215.986L224.487 215.927C224.296 216.176 224.08 216.402 223.84 216.6L223.901 216.675C223.656 216.878 223.387 217.053 223.095 217.194L223.054 217.104C222.914 217.171 222.77 217.23 222.621 217.281C222.471 217.331 222.321 217.372 222.17 217.404L222.19 217.501C221.873 217.568 221.554 217.592 221.236 217.581L221.24 217.484C220.929 217.473 220.619 217.426 220.315 217.344L220.29 217.439C219.984 217.356 219.684 217.241 219.395 217.095L219.441 217.007C219.165 216.867 218.899 216.698 218.648 216.503L218.587 216.582C218.338 216.389 218.103 216.17 217.885 215.929L217.959 215.862C217.753 215.633 217.561 215.383 217.389 215.113L217.306 215.165C217.137 214.9 216.987 214.617 216.858 214.317L216.949 214.279C216.888 214.136 216.831 213.989 216.78 213.838C216.729 213.688 216.684 213.537 216.646 213.386L216.55 213.41C216.469 213.094 216.416 212.778 216.388 212.465L216.487 212.457C216.458 212.138 216.458 211.823 216.482 211.515L216.383 211.507C216.408 211.183 216.461 210.867 216.541 210.562L216.637 210.587C216.718 210.279 216.826 209.984 216.959 209.705L216.869 209.662C217.009 209.37 217.176 209.096 217.369 208.845L217.448 208.905C217.639 208.656 217.855 208.429 218.095 208.231L218.032 208.155C218.278 207.952 218.547 207.778 218.838 207.637L218.881 207.727C219.02 207.66 219.165 207.601 219.314 207.55C219.463 207.499 219.614 207.458 219.765 207.427L219.744 207.33Z" fill="#363E44" stroke="#ADBACC" stroke-width="0.2" stroke-dasharray="1 1"/>
<path d="M157.506 264.071L178.276 255.733C179.165 255.376 180.149 255.968 180.252 256.921L180.804 262.07L181.44 267.995L182.019 273.394C182.089 274.038 181.721 274.649 181.121 274.89L160.351 283.227C159.462 283.584 158.478 282.993 158.375 282.04L157.883 277.452L157.187 270.965L156.608 265.567C156.538 264.923 156.906 264.312 157.506 264.071Z" fill="#01595A"/>
<path d="M157.187 270.965L156.608 265.567C156.538 264.923 156.906 264.312 157.506 264.071L178.276 255.733C179.165 255.376 180.149 255.968 180.252 256.921L181.44 267.995M157.187 270.965L180.804 262.07L181.44 267.995M157.187 270.965L157.883 277.452M181.44 267.995L182.019 273.394C182.089 274.038 181.721 274.649 181.121 274.89L160.351 283.227C159.462 283.584 158.478 282.993 158.375 282.04L157.883 277.452M181.44 267.995L157.883 277.452" stroke="#ADBACC" stroke-width="0.5" stroke-dasharray="2 2"/>
<path d="M271.058 222.397L287.945 215.618C288.668 215.328 289.469 215.809 289.552 216.583L290.001 220.77L290.518 225.588L290.989 229.977C291.045 230.501 290.747 230.998 290.258 231.194L273.372 237.972C272.648 238.263 271.848 237.782 271.765 237.007L271.364 233.277L270.798 228.002L270.327 223.613C270.271 223.09 270.57 222.593 271.058 222.397Z" fill="#01595A"/>
<path d="M270.798 228.002L270.327 223.613C270.271 223.09 270.57 222.593 271.058 222.397L287.945 215.618C288.668 215.328 289.469 215.809 289.552 216.583L290.518 225.588M270.798 228.002L290.001 220.77L290.518 225.588M270.798 228.002L271.364 233.277M290.518 225.588L290.989 229.977C291.045 230.501 290.747 230.998 290.258 231.194L273.372 237.972C272.648 238.263 271.848 237.782 271.765 237.007L271.364 233.277M290.518 225.588L271.364 233.277" stroke="#ADBACC" stroke-width="0.5" stroke-dasharray="2 2"/>
<defs>
<linearGradient id="paint0_linear_6382_10603" x1="228.925" y1="120.764" x2="156.077" y2="128.351" gradientUnits="userSpaceOnUse">
<stop stop-color="#0DBFBB"/>
<stop offset="1" stop-color="#0F8D8C"/>
</linearGradient>
</defs>
</svg>
