<svg width="120" height="120" viewBox="0 0 120 120" fill="none" xmlns="http://www.w3.org/2000/svg">
<path d="M12.9584 68.5683L43.702 42.6677C43.8242 42.5647 43.993 42.5368 44.1418 42.5949L52.9173 46.0195C53.1015 46.0914 53.2143 46.2781 53.1923 46.4746L48.3126 90.072C48.2771 90.3892 47.9243 90.5622 47.6518 90.396L13.0124 69.2746C12.7579 69.1194 12.7305 68.7603 12.9584 68.5683Z" fill="#363E44" stroke="#ADBACC" stroke-width="0.181818" stroke-dasharray="0.73 0.73"/>
<path d="M109.928 73.5741L110.71 73.8598L110.71 73.859L110.679 73.9442L110.838 74.003L110.73 74.0438L110.762 74.1292L110.793 74.2133L111.017 74.1309L111.033 74.3526L111.123 74.3466L111.17 75.0339L111.08 75.04L111.128 75.7279L111.218 75.7219L111.264 76.4101L111.175 76.4153L111.222 77.1032L111.312 77.0971L111.359 77.7845L111.269 77.7914L111.316 78.4788L111.406 78.4727L111.453 79.1606L111.363 79.1667L111.41 79.8541L111.5 79.848L111.546 80.5363L111.456 80.5423L111.504 81.2302L111.595 81.2233L111.641 81.9107L111.551 81.9176L111.598 82.6049L111.689 82.5994L111.735 83.2868L111.645 83.2928L111.668 83.6363C111.679 83.7867 111.59 83.927 111.449 83.982L111.111 84.1151L111.143 84.1992L110.465 84.465L110.432 84.3812L109.753 84.6464L109.786 84.7311L109.108 84.9977L109.075 84.913L108.396 85.1791L108.429 85.2629L107.75 85.529L107.719 85.4449L107.039 85.7109L107.072 85.7956L106.394 86.0621L106.361 85.9775L105.683 86.2427L105.715 86.3274L105.036 86.5934L105.004 86.5088L104.326 86.7754L104.358 86.8592L103.679 87.1253L103.647 87.0406L102.969 87.3072L103.001 87.3919L102.323 87.6571L102.29 87.5725L101.612 87.8391L101.644 87.9232L100.966 88.1889L100.933 88.1051L100.255 88.3704L100.287 88.455L99.6087 88.7216L99.5763 88.6369L98.8973 88.903L98.9302 88.9868L98.2512 89.2529L98.2196 89.1688L97.5406 89.4348L97.573 89.5195L96.8944 89.7847L96.8624 89.7014L96.1838 89.9667L96.2162 90.0513L95.538 90.3179L95.5048 90.2327L94.8271 90.4985L94.8595 90.5831L94.1805 90.8492L94.1481 90.7646L93.4699 91.0311L93.5023 91.1158L92.8238 91.381L92.7914 91.2964L92.1131 91.563L92.1447 91.6471L91.467 91.9128L91.4341 91.829L90.7556 92.0943L90.788 92.1789L90.1098 92.4455L90.1103 92.4447L90.0774 92.3609L89.3984 92.6269L89.4313 92.7107L88.7522 92.9768L88.7207 92.8927L88.0416 93.1588L88.0746 93.2426L87.3955 93.5086L87.3639 93.4245L86.6849 93.6906L86.7173 93.7752L86.0388 94.0405L86.0059 93.9567L85.3282 94.2224L85.3601 94.3079L84.6816 94.5731L84.6492 94.4885L83.9709 94.7551L84.0033 94.8397L83.3248 95.1049L83.2924 95.0203L82.6134 95.2864L82.6466 95.3715L81.9681 95.6368L81.9352 95.553L81.2567 95.8182L81.2891 95.9028L80.6109 96.1694L80.6114 96.1686L80.5785 96.0848L79.8999 96.35L79.9324 96.4347L79.2533 96.7007L79.2217 96.6166L78.5427 96.8827L78.5756 96.9665L77.8966 97.2326L77.8642 97.1479L77.186 97.4145L77.2184 97.4991L76.5399 97.7644L76.5069 97.6806L75.8293 97.9463L75.8611 98.0318L75.1831 98.2962L75.1502 98.2124L74.472 98.479L74.5044 98.5636L73.8259 98.8289L73.7935 98.7442L73.1145 99.0103L73.1477 99.0955L72.4692 99.3607L72.4368 99.2761L71.7577 99.5421L71.7901 99.6268L71.1119 99.8933L71.0795 99.8087L70.401 100.074L70.4334 100.159L69.7544 100.425L69.7228 100.341L69.0438 100.607L69.0767 100.69L68.3977 100.956L68.3653 100.872L67.6871 101.138L67.72 101.222L67.0409 101.488L67.008 101.405L66.3303 101.67L66.3619 101.754L65.6842 102.02L65.6513 101.936L64.9736 102.202L65.0052 102.286L64.327 102.553L64.2946 102.468L63.6155 102.734L63.6488 102.819L62.9697 103.085L62.9379 103L62.2588 103.266L62.2912 103.351L61.613 103.617L61.5806 103.533L60.9021 103.798L60.9345 103.883L60.2563 104.149L60.2239 104.064L59.5449 104.331L59.5778 104.414L58.8987 104.68L58.8663 104.596L58.1881 104.862L58.2211 104.946L58.2205 104.947L57.542 105.212L57.5096 105.128L56.8314 105.394L56.863 105.478L56.1853 105.744L56.1524 105.66L55.4739 105.925L55.5063 106.01L54.8281 106.277L54.7957 106.192L54.1166 106.458L54.1495 106.542L53.4708 106.809L53.4389 106.724L52.7599 106.99L52.7931 107.075L52.1141 107.341L52.0817 107.257L51.4032 107.522L51.4356 107.606L50.7574 107.873L50.7241 107.788L50.0464 108.054L50.0789 108.138L49.3998 108.404L49.3674 108.32L49.1479 108.406L49.1421 108.183L49.0506 108.186L48.9604 108.188L48.9647 108.362L48.8127 108.257L48.7613 108.332L48.1621 107.922L48.2134 107.847L47.6139 107.435L47.5625 107.51L47.5612 107.51L46.9611 107.1L46.9624 107.099L47.0138 107.024L46.4145 106.614L46.3632 106.689L45.7631 106.278L45.8145 106.203L45.2157 105.792L45.1635 105.867L45.1622 105.867L44.5629 105.457L44.5643 105.456L44.6156 105.381L44.0155 104.97L43.9642 105.045L43.3641 104.635L43.3655 104.634L43.4168 104.559L42.8167 104.148L42.7654 104.223L42.764 104.224L42.1653 103.813L42.2166 103.738L41.6174 103.327L41.566 103.402L40.9651 102.991L40.9665 102.991L41.0178 102.916L40.4177 102.505L40.3664 102.58L40.365 102.58L39.7671 102.17L39.8185 102.095L39.2184 101.684L39.167 101.759L38.5661 101.347L38.5675 101.347L38.6188 101.272L38.0196 100.862L37.9682 100.937L37.9669 100.937L37.3681 100.526L37.4195 100.451L36.8194 100.04L36.7681 100.115L36.168 99.7044L36.1693 99.7041L36.2207 99.6291L35.6206 99.2183L35.5692 99.2933L35.5679 99.2936L34.97 98.883L35.0213 98.808L34.4212 98.3971L34.3699 98.4722L33.769 98.0608L33.7703 98.0605L33.8217 97.9855L33.2224 97.5752L33.1711 97.6502L32.571 97.2394L32.6223 97.1644L32.0228 96.7527L31.9714 96.8278L31.9701 96.8281L31.3708 96.4178L31.3722 96.4175L31.4235 96.3424L30.8234 95.9316L30.7721 96.0066L30.172 95.5958L30.2234 95.5208L29.6246 95.1097L29.5733 95.1847L29.5719 95.185L28.9718 94.7742L28.9732 94.7739L29.0245 94.6989L28.4245 94.2881L28.3731 94.3631L27.7738 93.9528L27.8252 93.8778L27.2256 93.4661L27.1743 93.5411L27.1729 93.5414L26.5728 93.1306L26.5742 93.1303L26.6264 93.0558L26.0263 92.645L25.9749 92.72L25.3749 92.3092L25.4262 92.2342L24.8275 91.8231L24.7761 91.8981L24.7748 91.8984L24.176 91.4872L24.2274 91.4122L23.6273 91.0014L23.5759 91.0764L22.9767 90.6661L23.028 90.5911L22.4285 90.1795L22.3771 90.2545L22.3758 90.2548L21.777 89.8437L21.8284 89.7687L21.2291 89.3584L21.1778 89.4334L20.5769 89.022L20.5782 89.0217L20.6296 88.9467L20.0295 88.5359L19.9781 88.6109L19.9768 88.6112L19.3789 88.2006L19.4302 88.1256L18.8302 87.7148L18.7788 87.7898L18.1779 87.3785L18.1792 87.3782L18.2306 87.3031L17.6313 86.8928L17.58 86.9679L17.5786 86.9682L16.9799 86.557L17.0312 86.482L16.432 86.0717L16.3798 86.1462L15.7797 85.7354L15.7811 85.7351L15.8324 85.6601L15.2323 85.2493L15.181 85.3243L14.5817 84.914L14.6331 84.839L14.033 84.4282L13.9817 84.5032L13.3807 84.0918L13.3821 84.0915L13.4334 84.0165L12.8342 83.6062L12.7828 83.6812L12.1827 83.2704L12.2341 83.1954L11.634 82.7846L11.5827 82.8596L10.9826 82.4488L10.9839 82.4485L11.0353 82.3735L10.7352 82.168C10.6738 82.126 10.628 82.0656 10.604 81.9965L10.5874 81.9252L10.5449 81.5742L10.4545 81.5846L10.4531 81.5849L10.3682 80.883L10.3695 80.8826L10.46 80.8723L10.3751 80.1703L10.2849 80.1821L10.2836 80.1824L10.1986 79.4804L10.2 79.4801L10.2896 79.4692L10.2046 78.7673L10.115 78.7782L10.1137 78.7785L10.0296 78.0771L10.1205 78.0659L10.0351 77.3648L9.9446 77.3751L9.94326 77.3755L9.85831 76.6735L9.85966 76.6732L9.95012 76.6628L9.86517 75.9609L9.7742 75.9721L9.68873 75.271L9.69008 75.2707L9.77971 75.2598L9.69476 74.5579L9.60513 74.5688L9.60379 74.5691L9.51967 73.8676L9.60982 73.8559L9.58932 73.6913L9.73673 73.7797L9.83115 73.6245L9.64509 73.5132L9.83892 73.3831L9.7881 73.3077L9.78727 73.3072L10.4082 72.8887L10.4091 72.8892L10.4599 72.9646L11.0809 72.5462L11.0301 72.4708L11.0292 72.4702L11.6515 72.0515L11.6524 72.052L11.7032 72.1274L12.0133 71.9179C12.1247 71.8429 12.2698 71.8396 12.3848 71.9089L12.699 72.099L12.7462 72.0214L12.7454 72.0209L13.3738 72.401L13.3743 72.4002L13.3279 72.4783L13.9563 72.8584L14.0027 72.7803L14.0019 72.7798L14.6308 73.1591L14.6316 73.1596L14.5844 73.2372L15.2133 73.6165L15.26 73.5398L15.8873 73.918L15.8881 73.9186L15.8417 73.9967L16.4698 74.3755L16.5165 74.2987L17.1446 74.6775L17.1454 74.678L17.0982 74.7556L17.7272 75.1349L17.7739 75.0582L18.4019 75.4369L18.4025 75.4361L18.3556 75.5151L18.9837 75.8939L19.0309 75.8163L19.03 75.8157L19.6593 76.1964L19.6598 76.1956L19.6126 76.2732L20.241 76.6533L20.2874 76.5752L20.2865 76.5747L20.9158 76.9553L20.9163 76.9545L20.8691 77.0321L21.4975 77.4122L21.5447 77.3346L22.1728 77.7134L22.1736 77.7139L22.1264 77.7915L22.7553 78.1709L22.8012 78.0936L23.4293 78.4724L23.4301 78.4729L23.3829 78.5505L24.0119 78.9298L24.0585 78.853L24.6866 79.2318L24.6403 79.3099L25.2684 79.6887L25.3156 79.6111L25.3147 79.6106L25.944 79.9913L25.9445 79.9904L25.8973 80.068L26.5257 80.4482L26.5729 80.3706L26.5721 80.3701L27.2005 80.7502L27.201 80.7494L27.1546 80.8275L27.7822 81.2071L27.8294 81.1295L27.8286 81.129L28.4578 81.5096L28.4583 81.5088L28.4111 81.5864L29.04 81.9657L29.0859 81.8884L29.714 82.2672L29.7148 82.2677L29.6676 82.3453L30.2965 82.7247L30.3432 82.6479L30.9713 83.0267L30.9722 83.0272L30.925 83.1048L31.5539 83.4841L31.5997 83.4068L32.2287 83.7861L32.182 83.8629L32.8104 84.243L32.8576 84.1654L32.8568 84.1649L33.4852 84.5451L33.4857 84.5442L33.4393 84.6223L34.0669 85.002L34.1141 84.9244L34.1133 84.9239L34.7425 85.3045L34.743 85.3037L34.6958 85.3813L35.3247 85.7606L35.3714 85.6838L35.999 86.0634L35.9995 86.0626L35.9531 86.1407L36.5812 86.5195L36.6279 86.4428L37.256 86.8216L37.2568 86.8221L37.2096 86.8997L37.8386 87.279L37.8844 87.2017L38.5134 87.581L38.4661 87.6586L39.0951 88.0379L39.1418 87.9611L39.7707 88.3404L39.724 88.4172L40.3524 88.7974L40.3988 88.7192L40.398 88.7187L41.0272 89.0994L41.0277 89.0986L40.9805 89.1761L41.6089 89.5563L41.6561 89.4787L42.2837 89.8583L42.2842 89.8575L42.2378 89.9356L42.8668 90.3149L42.9126 90.2376L43.5407 90.6164L43.5415 90.6169L43.4943 90.6945L44.1233 91.0738L44.1699 90.9971L44.798 91.3759L44.7517 91.454L45.3798 91.8328L45.4265 91.756L46.0554 92.1353L46.0087 92.2121L46.6371 92.5922L46.683 92.5149L47.3119 92.8942L47.3124 92.8934L47.266 92.9715L47.8936 93.3512L47.9408 93.2736L47.94 93.273L48.5692 93.6537L48.5697 93.6529L48.5225 93.7305L48.8367 93.9205C48.9725 94.0024 49.1381 94.019 49.2874 93.9655L49.6256 93.8438L49.5946 93.7588L50.2719 93.5158L50.3029 93.6008L50.9802 93.3578L50.9492 93.2728L51.6265 93.0299L51.6575 93.1148L52.3348 92.8718L52.3038 92.7869L52.9811 92.5439L53.0121 92.6288L53.6894 92.3859L53.6584 92.3009L54.3357 92.0579L54.3667 92.1429L55.0441 91.8999L55.013 91.8149L55.0122 91.8144L55.6895 91.5714L55.6903 91.572L55.7214 91.6569L56.3987 91.4139L56.3676 91.329L56.3668 91.3285L57.0441 91.0855L57.0449 91.086L57.0754 91.1718L57.7528 90.9288L57.7222 90.843L57.7214 90.8425L58.3982 90.6003L58.4301 90.6858L59.1065 90.4423L59.0755 90.3574L59.7528 90.1144L59.7838 90.1993L60.4611 89.9563L60.4301 89.8714L61.1074 89.6284L61.1384 89.7134L61.8157 89.4704L61.7847 89.3854L62.462 89.1424L62.4931 89.2274L63.1704 88.9844L63.1393 88.8995L63.8158 88.656L63.8166 88.6565L63.8477 88.7414L64.525 88.4984L64.4939 88.4135L64.4931 88.413L65.1704 88.17L65.1712 88.1705L65.2023 88.2555L65.8791 88.0133L65.8485 87.9275L65.8477 87.927L66.525 87.684L66.5258 87.6845L66.5564 87.7703L67.2337 87.5273L67.2031 87.4416L67.2023 87.441L67.8796 87.1981L67.8804 87.1986L67.911 87.2844L68.5883 87.0414L68.5577 86.9556L68.5569 86.9551L69.2342 86.7121L69.235 86.7126L69.2656 86.7984L69.9429 86.5554L69.9123 86.4696L69.9115 86.4691L70.5883 86.227L70.6202 86.3124L71.2967 86.0689L71.2656 85.984L71.9429 85.741L71.974 85.8259L72.6513 85.583L72.6197 85.4988L73.297 85.2559L73.2975 85.255L73.3286 85.34L74.0059 85.097L73.9743 85.0129L74.6516 84.7699L74.6521 84.7691L74.6832 84.854L75.36 84.6119L75.3289 84.5269L76.0062 84.2839L76.0067 84.2831L76.0373 84.3689L76.7146 84.1259L76.6835 84.0409L77.3608 83.798L77.3613 83.7971L77.3919 83.8829L78.0692 83.6399L78.0386 83.5542L78.0378 83.5536L78.7151 83.3107L78.7159 83.3112L78.7465 83.3969L79.4238 83.154L79.3932 83.0682L79.3924 83.0677L80.0697 82.8247L80.0705 82.8252L80.1011 82.911L80.7784 82.668L80.7479 82.5822L80.747 82.5817L81.4238 82.3395L81.4246 82.3401L81.4557 82.425L82.133 82.182L82.1019 82.0971L82.1011 82.0966L82.7779 81.8544L82.7784 81.8536L82.8103 81.939L83.4868 81.6955L83.4552 81.6114L84.1325 81.3684L84.133 81.3676L84.1636 81.4534L84.8409 81.2104L84.8098 81.1255L85.4871 80.8825L85.4876 80.8817L85.5182 80.9674L86.1955 80.7244L86.1644 80.6395L86.8417 80.3965L86.8422 80.3957L86.8728 80.4815L87.5501 80.2385L87.519 80.1535L88.1963 79.9105L88.1968 79.9097L88.2274 79.9955L88.9047 79.7525L88.8736 79.6676L89.5509 79.4246L89.5515 79.4238L89.582 79.5095L90.2593 79.2665L90.2282 79.1816L90.9047 78.9381L90.9055 78.9386L90.9366 79.0236L91.6139 78.7806L91.5829 78.6956L91.582 78.6951L92.2593 78.4521L92.2602 78.4527L92.2912 78.5376L92.968 78.2954L92.9375 78.2097L92.9366 78.2092L93.6139 77.9662L93.6148 77.9667L93.6453 78.0525L94.3226 77.8095L94.2921 77.7237L94.2912 77.7232L94.9685 77.4802L94.9694 77.4807L94.9999 77.5665L95.6764 77.323L95.6453 77.238L96.3226 76.9951L96.3232 76.9942L96.3537 77.08L97.031 76.837L96.9999 76.7521L97.6772 76.5091L97.6778 76.5083L97.7083 76.594L98.3856 76.3511L98.3545 76.2661L99.0319 76.0231L99.0324 76.0223L99.0629 76.1081L99.7402 75.8651L99.7092 75.7802L99.7083 75.7796L100.386 75.5367L100.386 75.5372L100.418 75.6221L101.095 75.3791L101.064 75.2942L101.063 75.2937L101.74 75.0507L101.741 75.0512L101.772 75.137L102.449 74.894L102.418 74.8082L102.418 74.8077L103.095 74.5647L103.096 74.5652L103.126 74.651L103.804 74.408L103.773 74.3223L103.772 74.3217L104.449 74.0788L104.45 74.0793L104.481 74.165L105.158 73.9221L105.128 73.8363L105.127 73.8358L105.804 73.5928L105.805 73.5933L105.835 73.6791L106.171 73.558L106.172 73.5585L106.63 73.4046L106.6 73.3193L107.517 73.0124L107.546 73.0985L107.973 72.9548L108.335 73.0875L108.366 73.0023L108.366 73.0018L109.147 73.2883L109.147 73.2875L109.116 73.3728L109.898 73.6585L109.928 73.5741ZM109.405 74.6348L109.438 74.7194L110.116 74.4664L110.084 74.3822L110.052 74.2968L109.374 74.5498L109.405 74.6348ZM108.05 75.1408L108.082 75.2254L108.76 74.9724L108.728 74.8878L108.696 74.8023L108.018 75.0553L108.05 75.1408ZM106.694 75.6469L106.726 75.731L107.404 75.4785L107.372 75.3938L107.34 75.3084L106.662 75.5614L106.694 75.6469ZM105.37 76.2379L106.048 75.984L106.015 75.8994L105.984 75.8144L105.306 76.0669L105.37 76.2379ZM104.014 76.7439L104.692 76.4909L104.628 76.3199L103.95 76.573L104.014 76.7439ZM102.626 77.164L102.657 77.2494L103.335 76.9964L103.304 76.9115L103.272 76.826L102.595 77.079L102.626 77.164ZM101.302 77.7555L101.98 77.5025L101.948 77.417L101.917 77.332L101.238 77.5846L101.302 77.7555ZM99.9144 78.1761L99.9454 78.261L100.624 78.0085L100.56 77.8376L99.8825 78.0906L99.9144 78.1761ZM98.5579 78.6816L98.5898 78.7671L99.2676 78.514L99.2357 78.4286L99.2047 78.3436L98.5269 78.5967L98.5579 78.6816ZM97.2342 79.2731L97.912 79.0201L97.8482 78.8492L97.1704 79.1022L97.2342 79.2731ZM95.8467 79.6937L95.8777 79.7786L96.5555 79.5256L96.5245 79.4407L96.4926 79.3552L95.8148 79.6082L95.8467 79.6937ZM94.5221 80.2847L95.1999 80.0317L95.168 79.9462L95.137 79.8613L94.4583 80.1138L94.5221 80.2847ZM93.1346 80.7053L93.1657 80.7902L93.8443 80.5377L93.7805 80.3668L93.1027 80.6198L93.1346 80.7053ZM91.7782 81.2108L91.8101 81.2963L92.4879 81.0433L92.4568 80.9583L92.4249 80.8728L91.7471 81.1259L91.7782 81.2108ZM90.4544 81.8023L91.1323 81.5493L91.0685 81.3784L90.3907 81.6314L90.4544 81.8023ZM89.0669 82.2229L89.098 82.3079L89.7766 82.0554L89.7129 81.8844L89.035 82.1374L89.0669 82.2229ZM87.7424 82.8139L88.4202 82.5609L88.3883 82.4754L88.3572 82.3905L87.6786 82.643L87.7424 82.8139ZM86.3868 83.32L87.0646 83.0669L87.0008 82.896L86.323 83.149L86.3868 83.32ZM84.9984 83.74L85.0303 83.8255L85.7081 83.5725L85.6771 83.4875L85.6452 83.4021L84.9674 83.6551L84.9984 83.74ZM83.6428 84.2461L83.6747 84.3315L84.3525 84.0785L84.2887 83.9076L83.6104 84.1614L83.6428 84.2461ZM82.2872 84.7521L82.3183 84.8371L82.9969 84.5846L82.965 84.4991L82.9326 84.4145L82.2548 84.6675L82.2872 84.7521ZM80.9307 85.2577L80.9626 85.3431L81.6404 85.0901L81.6086 85.0046L81.577 84.9205L80.8992 85.1735L80.9307 85.2577ZM79.5751 85.7637L79.607 85.8492L80.2848 85.5961L80.2529 85.5107L80.2205 85.426L79.5427 85.6791L79.5751 85.7637ZM78.2182 86.2701L78.2506 86.3547L78.9284 86.1017L78.8973 86.0167L78.8649 85.9321L78.1871 86.1851L78.2182 86.2701ZM76.8625 86.7761L76.895 86.8608L77.5728 86.6077L77.5404 86.5231L77.5093 86.4381L76.8307 86.6907L76.8625 86.7761ZM75.5069 87.2822L75.5385 87.3663L76.2171 87.1138L76.1847 87.0291L76.1529 86.9437L75.475 87.1967L75.5069 87.2822ZM74.1505 87.7877L74.1829 87.8723L74.8607 87.6193L74.8291 87.5352L74.7972 87.4497L74.1194 87.7028L74.1505 87.7877ZM72.7949 88.2937L72.8273 88.3784L73.5051 88.1254L73.4727 88.0407L73.4408 87.9553L72.763 88.2083L72.7949 88.2937ZM71.4392 88.7998L71.4703 88.8847L72.1495 88.6314L72.1171 88.5468L72.0852 88.4613L71.4074 88.7143L71.4392 88.7998ZM70.1147 89.3908L70.7925 89.1378L70.7606 89.0523L70.7296 88.9674L70.0509 89.2199L70.1147 89.3908ZM68.7591 89.8968L69.4369 89.6438L69.3731 89.4729L68.6953 89.7259L68.7591 89.8968ZM67.3707 90.3169L67.4026 90.4024L68.0804 90.1493L68.0494 90.0644L68.0175 89.9789L67.3397 90.232L67.3707 90.3169ZM66.047 90.9084L66.7248 90.6554L66.661 90.4845L65.9832 90.7375L66.047 90.9084ZM64.6595 91.329L64.6906 91.414L65.3692 91.1614L65.3054 90.9905L64.6276 91.2435L64.6595 91.329ZM63.3031 91.8345L63.3349 91.92L64.0128 91.667L63.9809 91.5815L63.9498 91.4966L63.272 91.7496L63.3031 91.8345ZM61.9793 92.4261L62.6571 92.173L62.5934 92.0021L61.9156 92.2551L61.9793 92.4261ZM60.591 92.8461L60.6229 92.9316L61.3007 92.6786L61.2696 92.5936L61.2377 92.5082L60.5599 92.7612L60.591 92.8461ZM59.2673 93.4376L59.9451 93.1846L59.9132 93.0991L59.8821 93.0142L59.2035 93.2667L59.2673 93.4376ZM57.8798 93.8582L57.9108 93.9432L58.5895 93.6907L58.5257 93.5197L57.8479 93.7728L57.8798 93.8582ZM48.9388 107.484L49.0303 107.481L49.1205 107.479L49.1002 106.775L49.0087 106.777L48.9186 106.78L48.9388 107.484ZM56.5233 94.3638L56.5552 94.4492L57.233 94.1962L57.202 94.1112L57.1701 94.0258L56.4923 94.2788L56.5233 94.3638ZM48.897 106.076L48.9885 106.073L49.0786 106.071L49.0584 105.367L48.9669 105.369L48.8767 105.372L48.897 106.076ZM55.1996 94.9553L55.8774 94.7022L55.8136 94.5313L55.1358 94.7843L55.1996 94.9553ZM48.8551 104.668L48.9466 104.665L49.0368 104.663L49.0165 103.959L48.925 103.961L48.8349 103.964L48.8551 104.668ZM53.8121 95.3759L53.8431 95.4608L54.5218 95.2083L54.458 95.0374L53.7802 95.2904L53.8121 95.3759ZM48.8133 103.26L48.9048 103.257L48.9949 103.255L48.9747 102.55L48.8832 102.553L48.793 102.556L48.8133 103.26ZM52.4875 95.9668L53.1653 95.7138L53.1334 95.6284L53.1024 95.5434L52.4237 95.7959L52.4875 95.9668ZM48.7714 101.852L48.8629 101.849L48.9531 101.847L48.9328 101.142L48.8413 101.145L48.7512 101.148L48.7714 101.852ZM51.0681 96.302L51.1 96.3874L51.1319 96.4729L51.8097 96.2199L51.7459 96.0489L51.0681 96.302ZM48.7296 100.444L48.8211 100.441L48.9113 100.438L48.891 99.7343L48.7995 99.7371L48.7093 99.7396L48.7296 100.444ZM49.7436 96.893L49.7755 96.9784L50.4533 96.7254L50.4222 96.6405L50.3903 96.555L49.712 96.8088L49.7436 96.893ZM48.6877 99.0357L48.7792 99.0329L48.8694 99.0304L48.8492 98.3262L48.7576 98.329L48.6675 98.3315L48.6877 99.0357ZM48.3726 97.1651L48.6374 97.3255L48.6459 97.6277L48.7374 97.6249L48.8276 97.6224L48.819 97.3351L49.0976 97.2315L49.0658 97.146L49.0334 97.0614L48.7352 97.1724L48.4671 97.0099L48.3726 97.1651ZM47.1462 96.4226L47.7597 96.7934L47.8541 96.6382L47.2406 96.2674L47.1462 96.4226ZM45.9197 95.6801L46.5332 96.0509L46.6276 95.8957L46.0141 95.5249L45.9197 95.6801ZM44.6933 94.9376L45.3062 95.3092L45.3534 95.2316L45.4012 95.1532L44.7877 94.7824L44.6933 94.9376ZM43.4668 94.195L44.0798 94.5667L44.1742 94.4115L43.5612 94.0399L43.4668 94.195ZM42.2875 93.3749L42.2398 93.4534L42.8533 93.8242L42.9477 93.669L42.3347 93.2973L42.2875 93.3749ZM41.0133 92.7108L41.6268 93.0817L41.7213 92.9265L41.1078 92.5557L41.0133 92.7108ZM39.7869 91.9683L40.4004 92.3392L40.4948 92.184L39.8813 91.8131L39.7869 91.9683ZM38.5604 91.2258L39.1739 91.5967L39.2683 91.4415L38.6548 91.0706L38.5604 91.2258ZM37.334 90.4833L37.9469 90.855L37.9947 90.7766L38.0419 90.699L37.4284 90.3281L37.334 90.4833ZM36.1075 89.7408L36.7205 90.1125L36.8149 89.9573L36.2019 89.5856L36.1075 89.7408ZM34.881 88.9983L35.494 89.37L35.5884 89.2148L34.9754 88.8431L34.881 88.9983ZM33.7013 88.179L33.6541 88.2566L34.2675 88.6274L34.362 88.4723L33.749 88.1006L33.7013 88.179ZM32.4276 87.5141L33.0411 87.8849L33.1355 87.7297L32.522 87.3589L32.4276 87.5141ZM31.2011 86.7716L31.8146 87.1424L31.909 86.9872L31.2955 86.6164L31.2011 86.7716ZM29.9747 86.0291L30.5882 86.3999L30.6826 86.2447L30.0691 85.8739L29.9747 86.0291ZM28.7482 85.2866L29.3612 85.6582L29.4084 85.5806L29.4561 85.5022L28.8426 85.1314L28.7482 85.2866ZM27.5217 84.544L28.1347 84.9157L28.2291 84.7605L27.6162 84.3889L27.5217 84.544ZM26.3425 83.7239L26.2948 83.8024L26.9082 84.1732L27.0027 84.018L26.3897 83.6463L26.3425 83.7239ZM25.0683 83.0599L25.6818 83.4307L25.7762 83.2755L25.1627 82.9047L25.0683 83.0599ZM23.8418 82.3173L24.4553 82.6882L24.5497 82.533L23.9362 82.1622L23.8418 82.3173ZM22.6154 81.5748L23.2289 81.9457L23.3233 81.7905L22.7098 81.4196L22.6154 81.5748ZM21.3889 80.8323L22.0019 81.204L22.0496 81.1256L22.0968 81.048L21.4833 80.6771L21.3889 80.8323ZM20.1624 80.0898L20.7754 80.4615L20.8698 80.3063L20.2569 79.9346L20.1624 80.0898ZM18.936 79.3473L19.549 79.719L19.6434 79.5638L19.0304 79.1921L18.936 79.3473ZM17.7562 78.528L17.709 78.6056L18.3225 78.9764L18.4169 78.8213L17.8039 78.4496L17.7562 78.528ZM16.4825 77.8631L17.096 78.2339L17.1904 78.0788L16.577 77.7079L16.4825 77.8631ZM15.2561 77.1206L15.8696 77.4914L15.964 77.3362L15.3505 76.9654L15.2561 77.1206ZM14.0296 76.3781L14.6431 76.7489L14.7375 76.5937L14.124 76.2229L14.0296 76.3781ZM12.8031 75.6356L13.4161 76.0072L13.4633 75.9296L13.5111 75.8512L12.8976 75.4804L12.8031 75.6356ZM11.5767 74.893L12.1897 75.2647L12.2841 75.1095L11.6711 74.7379L11.5767 74.893ZM10.3974 74.0729L10.3497 74.1514L10.9632 74.5222L11.0576 74.367L10.4446 73.9954L10.3974 74.0729Z" fill="#CFDAE5" fill-opacity="0.04" stroke="#ADBACC" stroke-width="0.181818" stroke-dasharray="0.73 0.73"/>
<path d="M49.9451 90.9115L54.5912 46.959C54.6106 46.7757 54.743 46.6244 54.9221 46.5809L61.1502 45.0669C61.2075 45.053 61.2614 45.0276 61.3087 44.9922L64.0102 42.9691C64.1044 42.8986 64.2231 42.869 64.3393 42.8873L67.7247 43.4184C67.807 43.4313 67.8838 43.4674 67.9462 43.5226L75.2353 49.9673C75.26 49.9892 75.2821 50.0137 75.3013 50.0406L77.8524 53.6121C77.9435 53.7396 78.096 53.8085 78.2519 53.7925L82.3698 53.3704C82.4773 53.3594 82.585 53.3887 82.6721 53.4525L106.412 70.8444C106.695 71.0516 106.631 71.4907 106.3 71.6078L50.5248 91.3687C50.2223 91.4759 49.9114 91.2307 49.9451 90.9115Z" fill="#CFDAE5" fill-opacity="0.04" stroke="#ADBACC" stroke-width="0.181818" stroke-dasharray="0.73 0.73"/>
<path d="M30.2494 25.2754C26.1948 26.7265 22.2658 29.9855 15.588 34.6048C11.4189 37.4888 11.5101 44.8868 10.9845 49.2459C10.9578 49.4677 10.97 49.6943 11.0657 49.8962C13.221 54.4428 29.7148 54.0041 37.7029 46.2867C37.8518 46.1428 37.9679 45.9645 38.0031 45.7605C38.16 44.8504 37.5812 44.3868 37.3328 43.8109C36.5625 42.025 35.7056 40.111 35.4609 38.3653C35.1226 35.9517 37.5634 34.5241 39.9437 34.001L55.55 30.5711L74.5167 26.4028C74.6671 26.3697 74.8034 26.4986 74.7789 26.6506L74.0415 31.224C73.8774 32.2416 74.4457 33.2419 75.4234 33.5683C83.4567 36.2496 90.9301 35.7161 97.0529 33.7711C97.3374 33.6808 97.5214 33.4062 97.494 33.109C97.2286 30.2291 96.3312 27.296 92.3015 22.8238C89.3842 20.1832 81.3444 17.7892 75.3845 17.0003C61.5028 17.0898 48.0685 18.8978 30.2494 25.2754Z" fill="#CFDAE5" fill-opacity="0.04" stroke="#ADBACC" stroke-width="0.181818" stroke-dasharray="0.73 0.73"/>
<path fill-rule="evenodd" clip-rule="evenodd" d="M54.3066 45.0103L45.5145 41.7462C45.322 41.6748 45.3258 41.4013 45.5201 41.3351L48.0771 40.4646C48.3977 40.3555 48.6762 40.1433 48.8548 39.8556C49.6952 38.5019 49.6393 38.0647 49.4455 36.548C49.4168 36.323 49.385 36.0741 49.3526 35.795L42.0746 33.9181C41.8543 33.8613 41.8571 33.5475 42.0784 33.4946L43.1603 33.2361L46.9134 33.7409L46.8227 32.4349L46.4069 26.4494L49.0974 25.825L51.6458 26.3041C51.7409 26.5741 51.8345 26.8434 51.9275 27.1108C52.3945 28.4533 52.846 29.7513 53.3855 30.8855C53.5947 31.3251 53.8938 31.7953 54.1397 32.1818C54.3778 32.5561 54.7449 32.8419 55.1733 32.9571L57.2143 33.5059C57.5576 33.5983 57.9138 33.6326 58.2685 33.609C58.5728 33.5887 58.8679 33.5697 59.1549 33.5512L59.1553 33.5511L59.1555 33.5511C63.5336 33.2687 66.005 33.1093 69.8115 30.6329C70.7426 30.0271 71.3459 29.0374 71.5478 27.9451L72.5643 22.4443C72.5754 22.3842 72.5345 22.3268 72.4741 22.3177L70.6967 21.9188L73.4733 21.5101C73.4984 21.5064 73.5239 21.5071 73.5488 21.5122L75.5079 21.9126L75.9985 28.9758C76.0404 29.5779 75.7237 30.1481 75.1905 30.4309L68.4735 33.9928L64.654 35.6797C64.5116 38.2663 65.4211 39.3041 66.4314 39.9977C66.4686 40.0232 66.5097 40.0423 66.553 40.0548L69.0523 40.7792C69.2668 40.8413 69.2604 41.1474 69.0435 41.2006L64.2443 42.3788L59.6404 43.7922L54.4325 45.0181C54.3907 45.028 54.3469 45.0252 54.3066 45.0103ZM66.7404 28.4846C66.6233 28.527 66.5022 28.5594 66.3795 28.5811C66.5023 28.5593 66.6231 28.527 66.7404 28.4846ZM69.621 27.2873C69.5789 27.4018 69.4858 27.4897 69.3711 27.5312C69.4859 27.4895 69.5788 27.4019 69.621 27.2873Z" fill="#1E262D"/>
<path d="M43.1603 33.2361L46.9134 33.7409L46.8227 32.4349L43.1603 33.2361Z" fill="#1E262D"/>
<path d="M54.1397 32.1818C54.3778 32.5561 54.7449 32.8419 55.1733 32.9571L57.2143 33.5059C57.5576 33.5983 57.9138 33.6326 58.2685 33.609C58.5728 33.5887 58.8679 33.5697 59.1549 33.5512L59.1553 33.5511L59.1555 33.5511C63.5336 33.2687 66.005 33.1093 69.8115 30.6329C70.7426 30.0271 71.3459 29.0374 71.5478 27.9451L72.5643 22.4443C72.5754 22.3842 72.5345 22.3268 72.4741 22.3177L70.6967 21.9188C70.1727 24.9853 69.9543 26.3824 69.621 27.2873C69.5789 27.4018 69.4858 27.4897 69.3711 27.5312L69.3706 27.5314L66.7414 28.4842L66.7404 28.4846C66.6233 28.527 66.5022 28.5594 66.3795 28.5811L66.379 28.5812L53.3855 30.8855C53.5947 31.3251 53.8938 31.7953 54.1397 32.1818Z" fill="#1E262D"/>
<path d="M49.3526 35.795L48.7377 26.9436M49.3526 35.795C54.4619 36.9345 58.0759 37.0115 64.654 35.6797M49.3526 35.795L42.0746 33.9181M49.3526 35.795C49.385 36.0741 49.4168 36.323 49.4455 36.548C49.6393 38.0647 49.6952 38.5019 48.8548 39.8556M43.1603 33.2361L46.9134 33.7409M43.1603 33.2361L46.8227 32.4349M43.1603 33.2361L42.0784 33.4946M46.9134 33.7409L46.4069 26.4494M46.9134 33.7409L46.8227 32.4349M46.4069 26.4494L48.7377 26.9436M46.4069 26.4494L49.0974 25.825L51.6458 26.3041M46.4069 26.4494L46.8227 32.4349M48.7377 26.9436L51.6458 26.3041M51.6458 26.3041C51.7409 26.5741 51.8345 26.8434 51.9275 27.1108C52.3945 28.4533 52.846 29.7513 53.3855 30.8855M70.6967 21.9188L72.4741 22.3177M70.6967 21.9188C70.1727 24.9853 69.9543 26.3824 69.621 27.2873M70.6967 21.9188L73.4733 21.5101M75.5079 21.9126L72.4741 22.3177M75.5079 21.9126L73.5488 21.5122M75.5079 21.9126L75.9985 28.9758M72.4741 22.3177V22.3177C72.5345 22.3268 72.5754 22.3842 72.5643 22.4443L71.5478 27.9451C71.3459 29.0374 70.7426 30.0271 69.8115 30.6329C66.005 33.1093 63.5336 33.2687 59.1555 33.5511L59.1553 33.5511L59.1549 33.5512C58.8679 33.5697 58.5728 33.5887 58.2685 33.609C57.9138 33.6326 57.5576 33.5983 57.2143 33.5059L55.1733 32.9571C54.7449 32.8419 54.3778 32.5561 54.1397 32.1818V32.1818C53.8938 31.7953 53.5947 31.3251 53.3855 30.8855M64.654 35.6797L68.4735 33.9928L75.1905 30.4309M64.654 35.6797C64.5116 38.2663 65.4211 39.3041 66.4314 39.9977M53.3855 30.8855L66.379 28.5812L66.3795 28.5811M54.3066 45.0103L45.5145 41.7462M54.3066 45.0103C54.3469 45.0252 54.3907 45.028 54.4325 45.0181M54.3066 45.0103V45.0103C54.3469 45.0252 54.3907 45.028 54.4325 45.0181V45.0181M45.5145 41.7462C45.322 41.6748 45.3258 41.4013 45.5201 41.3351M45.5145 41.7462V41.7462C45.322 41.6748 45.3258 41.4013 45.5201 41.3351V41.3351M45.5201 41.3351L48.0771 40.4646M48.0771 40.4646C48.3977 40.3555 48.6762 40.1433 48.8548 39.8556M48.0771 40.4646V40.4646C48.3977 40.3555 48.6762 40.1433 48.8548 39.8556V39.8556M42.0746 33.9181C41.8543 33.8613 41.8571 33.5475 42.0784 33.4946M42.0746 33.9181V33.9181C41.8543 33.8613 41.8571 33.5475 42.0784 33.4946V33.4946M69.621 27.2873V27.2873C69.5789 27.4018 69.4858 27.4897 69.3711 27.5312V27.5312M69.621 27.2873C69.5788 27.4019 69.4859 27.4895 69.3711 27.5312M73.4733 21.5101C73.4984 21.5064 73.5239 21.5071 73.5488 21.5122M73.4733 21.5101V21.5101C73.4984 21.5064 73.5239 21.5071 73.5488 21.5122V21.5122M75.9985 28.9758C76.0404 29.5779 75.7237 30.1481 75.1905 30.4309M75.9985 28.9758V28.9758C76.0404 29.5779 75.7237 30.1481 75.1905 30.4309V30.4309M66.4314 39.9977C66.4686 40.0232 66.5097 40.0423 66.553 40.0548M66.4314 39.9977V39.9977C66.4685 40.0232 66.5097 40.0423 66.553 40.0548V40.0548M66.553 40.0548L69.0523 40.7792M69.0523 40.7792C69.2668 40.8413 69.2604 41.1474 69.0435 41.2006M69.0523 40.7792V40.7792C69.2668 40.8413 69.2604 41.1474 69.0435 41.2006V41.2006M69.0435 41.2006L64.2443 42.3788L59.6404 43.7922L54.4325 45.0181M66.3795 28.5811V28.5811C66.5022 28.5594 66.6233 28.527 66.7404 28.4846V28.4846M66.3795 28.5811C66.5023 28.5593 66.6231 28.527 66.7404 28.4846M66.7404 28.4846L66.7414 28.4842L69.3706 27.5314L69.3711 27.5312" stroke="#ADBACC" stroke-width="0.181818" stroke-dasharray="0.73 0.73"/>
<path d="M72.4447 42.4574C72.6728 42.5446 72.8999 42.6375 73.1258 42.7364L73.0901 42.8188C73.3123 42.9161 73.5335 43.0191 73.7531 43.1277L73.7926 43.0473C74.0113 43.1555 74.2284 43.2695 74.444 43.3887L74.4448 43.3881L74.4012 43.4678C74.6136 43.5852 74.8246 43.7081 75.0336 43.8362L75.0803 43.7591C75.2882 43.8865 75.494 44.0195 75.6981 44.1572L75.6483 44.2318C75.8495 44.3675 76.0492 44.5082 76.2462 44.654L76.299 44.5821C76.4953 44.7273 76.6893 44.8776 76.8811 45.0326L76.8252 45.1019C77.0139 45.2544 77.2003 45.4119 77.3843 45.5738L77.4441 45.5065C77.6272 45.6678 77.8076 45.8339 77.9857 46.0043L77.9242 46.0693C78.0994 46.2369 78.2719 46.4091 78.4418 46.5856L78.5064 46.5233C78.6756 46.6991 78.8418 46.8794 79.0054 47.0639L78.9391 47.1239C79.1001 47.3054 79.2587 47.491 79.4139 47.6808L79.4825 47.624C79.6369 47.813 79.7893 48.0053 79.9377 48.2024L79.8652 48.2571C79.9386 48.3546 80.0115 48.453 80.0834 48.5525C80.1552 48.6519 80.2258 48.7521 80.2953 48.8524L80.3695 48.8C80.5098 49.0025 80.6443 49.2073 80.775 49.413L80.7007 49.4619C80.8322 49.6689 80.9586 49.8776 81.0804 50.0875L81.157 50.0418C81.2808 50.255 81.3998 50.4695 81.5136 50.6853L81.4347 50.7279C81.5491 50.9448 81.6587 51.1631 81.7629 51.3823L81.8433 51.3435C81.9492 51.566 82.0503 51.7895 82.1459 52.014L82.0632 52.0496C82.1592 52.2751 82.2502 52.5016 82.3357 52.7286L82.4191 52.6973C82.506 52.9281 82.5877 53.1594 82.664 53.3914L82.5791 53.419C82.6557 53.6519 82.7265 53.8856 82.7923 54.1192L82.8789 54.094C82.9457 54.3314 83.0069 54.5691 83.0627 54.8069L82.9754 54.8279C83.0313 55.0665 83.0817 55.3054 83.1265 55.5439L83.2145 55.5273C83.26 55.7695 83.3 56.0114 83.334 56.253L83.2453 56.2653C83.2795 56.5078 83.3078 56.7503 83.3304 56.9918L83.4198 56.9838C83.4428 57.2293 83.4596 57.4741 83.4708 57.718L83.3821 57.7219C83.3933 57.9666 83.3978 58.2105 83.3972 58.4531L83.488 58.4538C83.4873 58.6999 83.4797 58.9448 83.4669 59.1883L83.3773 59.1843C83.3644 59.4286 83.3453 59.6714 83.3202 59.9123L83.4089 59.9217C83.3833 60.1668 83.3512 60.41 83.3131 60.6512L83.225 60.6377C83.1868 60.8792 83.1427 61.1186 83.0919 61.3556L83.1791 61.3745C83.1275 61.6151 83.0691 61.8531 83.0046 62.0885L82.9181 62.0655C82.8535 62.3012 82.7823 62.5342 82.7048 62.7641L82.7897 62.7932C82.711 63.0263 82.6256 63.2562 82.5338 63.4829L82.4512 63.4486C82.3596 63.6747 82.2615 63.8978 82.1568 64.1167L82.2372 64.1562C82.1312 64.3777 82.0184 64.5953 81.8991 64.8089L81.8208 64.7655C81.7021 64.978 81.5764 65.1863 81.4445 65.3903L81.5198 65.4395C81.3866 65.6456 81.2466 65.8472 81.1 66.0441L81.0283 65.9899C80.8833 66.1846 80.7323 66.3751 80.5741 66.5602L80.643 66.6188C80.4838 66.8051 80.3168 66.9851 80.1444 67.161L80.0811 67.0984C79.9117 67.2712 79.7366 67.4395 79.5544 67.6017L79.6128 67.6692C79.4309 67.8312 79.2434 67.9885 79.0489 68.1393L78.9933 68.0674C78.8973 68.1419 78.7996 68.2158 78.7005 68.2874C78.6015 68.359 78.5012 68.4281 78.4004 68.4958L78.4513 68.5711L78.4505 68.5717C78.2459 68.7092 78.0375 68.8381 77.8263 68.96L77.7821 68.8823C77.5708 69.0043 77.3555 69.1182 77.138 69.2248L77.1768 69.3052C76.956 69.4134 76.7329 69.5152 76.5063 69.6077L76.5071 69.6071L76.4722 69.5239C76.2469 69.6159 76.0186 69.6995 75.7881 69.776L75.8163 69.8617C75.5833 69.939 75.348 70.0086 75.1105 70.0704L75.0883 69.9829C74.8531 70.0441 74.6159 70.0979 74.3769 70.1439L74.3927 70.2325C74.1524 70.2786 73.9104 70.3174 73.6669 70.3484L73.6562 70.2586C73.4153 70.2893 73.1722 70.3129 72.9286 70.3288L72.9344 70.4186C72.6904 70.4346 72.4453 70.4436 72.1993 70.445L72.1991 70.3547C71.9565 70.3561 71.713 70.3505 71.4689 70.3378L71.4641 70.428L71.4633 70.4285C71.2194 70.4158 70.9749 70.3958 70.7301 70.3692L70.7411 70.2793C70.5001 70.2531 70.2582 70.2204 70.0169 70.1809L70.0013 70.2693C69.7603 70.2297 69.5193 70.1838 69.2786 70.1312L69.2992 70.0428C69.0623 69.991 68.8253 69.9335 68.5893 69.869L68.5649 69.9553C68.3294 69.891 68.0945 69.8206 67.8603 69.7439L67.8888 69.6583C67.6584 69.5828 67.4287 69.5012 67.2001 69.4137L67.1669 69.4979C66.9389 69.4107 66.7117 69.3179 66.4859 69.219L66.5223 69.136C66.3002 69.0387 66.0796 68.9351 65.8601 68.8265L65.819 68.908C65.6003 68.7998 65.3832 68.6859 65.1676 68.5667L65.2118 68.4877C64.9993 68.3703 64.7884 68.2475 64.5794 68.1194L64.5321 68.1957C64.3238 68.0681 64.1174 67.9353 63.9129 67.7973L63.9641 67.723C63.7629 67.5872 63.5632 67.4465 63.3662 67.3008L63.3126 67.3733C63.1163 67.228 62.9223 67.0778 62.7305 66.9228L62.7872 66.8529C62.5985 66.7004 62.4121 66.5428 62.2281 66.3809L62.1683 66.4482C61.9851 66.2869 61.804 66.1215 61.6259 65.951L61.6888 65.8863C61.5135 65.7185 61.3406 65.5458 61.1706 65.3691L61.1046 65.4313C60.9355 65.2554 60.7692 65.0751 60.6056 64.8906L60.6738 64.8317C60.5128 64.6502 60.3551 64.464 60.1999 64.2741L60.1286 64.3305C59.9746 64.142 59.8225 63.9503 59.6745 63.7538L59.7478 63.6984L59.5296 63.4031C59.4577 63.3036 59.3872 63.2034 59.3177 63.1032L59.243 63.1548L59.2416 63.1545C59.1623 63.0401 59.0852 62.9248 59.009 62.8093L58.836 62.5416L58.9131 62.4931C58.7816 62.2862 58.6543 62.0779 58.5326 61.8681L58.454 61.9128C58.3303 61.6995 58.2112 61.4851 58.0975 61.2692L58.1777 61.2269C58.0635 61.0102 57.9542 60.7923 57.8501 60.5733L57.7683 60.6119C57.6624 60.3892 57.5621 60.1653 57.4665 59.9408L57.5492 59.9051C57.4532 59.6796 57.3622 59.4532 57.2767 59.2261L57.1925 59.258C57.1056 59.0273 57.0239 58.7959 56.9476 58.5639L57.0333 58.5357C56.9568 58.3029 56.8859 58.0691 56.8202 57.8355L56.733 57.86C56.6663 57.6228 56.6054 57.3853 56.5498 57.1478L56.6376 57.1277C56.5817 56.8891 56.5313 56.6501 56.4865 56.4116L56.3971 56.428C56.3517 56.1858 56.3117 55.9439 56.2776 55.7023L56.3679 55.6889C56.3337 55.4464 56.3046 55.2044 56.282 54.963L56.1918 54.9716C56.179 54.8346 56.1684 54.6978 56.1593 54.5613L56.1408 54.2373L56.2317 54.2331C56.2205 53.9885 56.2151 53.7449 56.2158 53.5024L56.125 53.5018C56.1257 53.2554 56.1327 53.0102 56.1455 52.7665L56.2357 52.7712C56.2486 52.5267 56.2684 52.2838 56.2936 52.0426L56.203 52.0322C56.2285 51.7874 56.2599 51.5443 56.298 51.3033L56.388 51.3178C56.4262 51.0762 56.471 50.8365 56.5219 50.5994L56.4326 50.5808C56.4842 50.3398 56.5426 50.1013 56.6072 49.8655L56.6949 49.8901C56.7595 49.6543 56.8307 49.4213 56.9082 49.1914L56.822 49.1621C56.9006 48.9288 56.9854 48.6985 57.0773 48.4717L57.1612 48.5062C57.2529 48.28 57.3516 48.0565 57.4564 47.8375L57.3745 47.7991C57.4805 47.5775 57.5926 47.3594 57.7119 47.1456L57.7922 47.19C57.9109 46.9774 58.0359 46.7685 58.1679 46.5644L58.0918 46.5158C58.225 46.3097 58.365 46.1082 58.5116 45.9113L58.5841 45.9649C58.729 45.7702 58.8808 45.5804 59.0388 45.3954L58.9702 45.3354C59.129 45.1495 59.2947 44.9691 59.4666 44.7935L59.5313 44.8564C59.7008 44.6834 59.8771 44.5155 60.0593 44.3532L59.9988 44.2861C60.1812 44.1237 60.3693 43.9661 60.5643 43.8149L60.6199 43.8868C60.7158 43.8124 60.8135 43.7397 60.9125 43.6681C61.0116 43.5965 61.1119 43.5262 61.2128 43.4584L61.1612 43.3836C61.3657 43.2462 61.5742 43.1173 61.7854 42.9953L61.8317 43.0727C62.0428 42.9508 62.2571 42.8365 62.4744 42.73L62.4342 42.6494C62.6551 42.5411 62.8787 42.4402 63.1053 42.3476L63.1407 42.4317C63.366 42.3397 63.5939 42.2553 63.8243 42.1788L63.7953 42.0937C64.0283 42.0163 64.2636 41.9467 64.5011 41.8849L64.5242 41.9719C64.7593 41.9107 64.997 41.8576 65.2361 41.8117L65.2184 41.7221C65.4588 41.6759 65.7011 41.638 65.9447 41.6069L65.957 41.6956C66.1979 41.6649 66.4403 41.6419 66.6838 41.6259L66.6766 41.5359C66.9208 41.5199 67.1661 41.5118 67.4123 41.5104L67.4138 41.6008C67.6565 41.5994 67.9 41.605 68.1441 41.6178L68.1483 41.5268C68.3923 41.5395 68.6367 41.5596 68.8815 41.5862L68.8727 41.6757C69.1136 41.7018 69.3548 41.7351 69.596 41.7747L69.6098 41.6853C69.8505 41.7247 70.0911 41.7714 70.3316 41.8239L70.3146 41.9121C70.5513 41.9639 70.7878 42.0221 71.0237 42.0865L71.0475 41.9994C71.2828 42.0637 71.5176 42.1334 71.7515 42.2101L71.7521 42.2108L71.7242 42.2973C71.9547 42.3728 72.1849 42.4537 72.4137 42.5412L72.4447 42.4574Z" stroke="#ADBACC" stroke-width="0.181818" stroke-dasharray="0.73 0.73"/>
<path d="M61.667 43.1373C66.9701 39.3057 75.2618 41.7246 80.1865 48.5406C85.1112 55.3567 84.804 63.9884 79.501 67.8199C74.1979 71.6513 65.9071 69.2316 60.9824 62.4156C56.0579 55.5998 56.3643 46.969 61.667 43.1373ZM74.2334 64.3502C73.4405 63.2701 71.9788 62.9185 70.9688 63.5641C69.9588 64.2098 69.7824 65.6089 70.5752 66.6891C71.368 67.7693 72.8298 68.1216 73.8398 67.4762C74.8499 66.8305 75.0262 65.4305 74.2334 64.3502ZM78.875 63.2877C78.0822 62.2075 76.6898 61.8108 75.7646 62.402C74.8395 62.9933 74.7325 64.349 75.5254 65.4293C76.3183 66.5094 77.7107 66.9054 78.6357 66.3141C79.5608 65.7227 79.6678 64.368 78.875 63.2877ZM68.9961 62.5446C68.2071 61.4695 66.7073 61.1471 65.6465 61.8248C64.5856 62.5029 64.3653 63.9244 65.1543 64.9996C65.9434 66.0748 67.443 66.3974 68.5039 65.7194C69.5647 65.0413 69.7849 63.6197 68.9961 62.5446ZM81.7998 59.941C81.0069 58.8608 79.6136 58.4649 78.6885 59.0563C77.7638 59.6477 77.6566 61.0025 78.4492 62.0826C79.2421 63.1629 80.6354 63.5597 81.5605 62.9684C82.4855 62.377 82.5926 61.0213 81.7998 59.941ZM64.9453 58.5201C64.166 57.4582 62.7239 57.1148 61.7246 57.7535C60.7256 58.3923 60.548 59.7708 61.3271 60.8326C62.1064 61.8944 63.5476 62.2377 64.5469 61.5992C65.5461 60.9605 65.7246 59.5821 64.9453 58.5201ZM76.0664 52.2926C74.5375 49.1366 71.0889 47.6475 68.3643 48.9674C65.6399 50.2874 64.6705 53.916 66.1992 57.0719C67.7281 60.2279 71.1768 61.716 73.9014 60.3961C76.6256 59.0762 77.5949 55.4484 76.0664 52.2926ZM82.167 55.0992C81.3741 54.0189 80.0501 53.5778 79.21 54.1149C78.37 54.652 78.3322 55.9633 79.125 57.0436C79.9178 58.1237 81.2409 58.5638 82.0811 58.027C82.9211 57.49 82.9597 56.1795 82.167 55.0992ZM62.8213 53.2311C62.0165 52.1346 60.5652 51.757 59.5791 52.3873C58.5929 53.0177 58.4452 54.4177 59.25 55.5143C60.0548 56.6107 61.507 56.9883 62.4932 56.358C63.4793 55.7277 63.6261 54.3277 62.8213 53.2311ZM80.3594 50.0631C79.5934 49.0195 78.2913 48.6091 77.4512 49.1461C76.6115 49.6833 76.5517 50.964 77.3174 52.0074C78.0833 53.0511 79.3854 53.4624 80.2256 52.9254C81.0657 52.3884 81.1253 51.1067 80.3594 50.0631ZM63.6328 48.4645C62.8407 47.3851 61.3851 47.0292 60.3818 47.6705C59.3786 48.3119 59.2079 49.7074 60 50.7867C60.7922 51.8659 62.2478 52.221 63.251 51.5797C64.2542 50.9384 64.4248 49.5438 63.6328 48.4645ZM66.7939 45.0924C66.0359 44.0598 64.6567 43.7119 63.7129 44.3151C62.769 44.9184 62.618 46.2451 63.376 47.278C64.134 48.3106 65.5142 48.6586 66.458 48.0553C67.4017 47.4519 67.5519 46.1252 66.7939 45.0924Z" fill="url(#paint0_linear_6382_10604)"/>
<path d="M80.4075 75.4315C80.5259 75.4558 80.6415 75.493 80.7531 75.5409L80.754 75.5406L80.7403 75.5731C80.8486 75.6197 80.9528 75.6774 81.0514 75.7449L81.0703 75.7157C81.1692 75.7833 81.2621 75.8608 81.3481 75.9473L81.3248 75.9727C81.4074 76.0559 81.4836 76.1481 81.5512 76.2475L81.5795 76.2276C81.6465 76.326 81.7054 76.4317 81.7552 76.5443L81.7228 76.5584C81.7466 76.6122 81.7684 76.6682 81.7877 76.7251C81.807 76.7819 81.8236 76.8388 81.8375 76.8959L81.8714 76.8864C81.9007 77.0064 81.9185 77.1264 81.9254 77.2456L81.8912 77.248C81.8981 77.3679 81.8935 77.4867 81.8787 77.6029L81.9124 77.6079C81.8969 77.729 81.8704 77.8469 81.8332 77.9607L81.8007 77.9501C81.7637 78.0636 81.7162 78.173 81.6587 78.2758L81.6885 78.2936C81.6292 78.3994 81.5598 78.4986 81.4808 78.59L81.4544 78.567C81.3773 78.6563 81.2911 78.7376 81.1964 78.8094L81.2179 78.8392C81.1227 78.9114 81.0189 78.9736 80.9077 79.0251L80.8924 78.9921C80.8392 79.0168 80.7839 79.0393 80.7272 79.0586C80.6707 79.0777 80.6138 79.0933 80.5567 79.1062L80.5647 79.1416C80.4447 79.1686 80.3241 79.1819 80.2042 79.1827L80.2043 79.1465C80.0853 79.1473 79.9668 79.1357 79.8511 79.1118L79.8433 79.1465C79.7251 79.122 79.61 79.0846 79.4986 79.0367L79.5126 79.0051C79.4043 78.9586 79.3002 78.9008 79.2016 78.8333L79.1814 78.8619C79.0824 78.7941 78.9888 78.7173 78.9027 78.6306L78.9282 78.6055C78.8457 78.5224 78.7697 78.431 78.7021 78.3316L78.6716 78.3513C78.6046 78.2526 78.5454 78.1465 78.4956 78.0336L78.5292 78.0201L78.4646 77.8543C78.4453 77.7975 78.4284 77.7398 78.4145 77.6826L78.3793 77.6915C78.3502 77.5719 78.3326 77.452 78.3257 77.3333L78.3621 77.3312C78.3552 77.2111 78.3594 77.0917 78.3743 76.9754L78.3384 76.97C78.3539 76.8489 78.3813 76.7308 78.4185 76.6169L78.4522 76.6281C78.4893 76.5145 78.5367 76.4053 78.5942 76.3024L78.5626 76.2853C78.6219 76.1793 78.691 76.0794 78.77 75.9879L78.7976 76.0115C78.8748 75.9221 78.9617 75.8407 79.0565 75.7688L79.0344 75.7402C79.1297 75.668 79.2328 75.6041 79.344 75.5525L79.3452 75.5531L79.3606 75.5861C79.4136 75.5615 79.4683 75.5392 79.5248 75.52C79.5815 75.5007 79.639 75.4849 79.6962 75.472L79.6883 75.4366L79.688 75.4356C79.8075 75.4088 79.928 75.3958 80.0475 75.3949L80.0478 75.3959L80.0487 75.4317C80.1674 75.4309 80.2854 75.4429 80.4009 75.4667L80.4075 75.4315Z" stroke="#ADBACC" stroke-width="0.0727273" stroke-dasharray="0.36 0.36"/>
<path d="M79.9049 75.393C80.02 75.3688 80.1362 75.3598 80.2518 75.3638L80.2514 75.399C80.3644 75.4029 80.4771 75.4203 80.5874 75.4498L80.5965 75.4158C80.7076 75.4456 80.8158 75.4885 80.9208 75.5418L80.9056 75.5727C81.0056 75.6235 81.1021 75.6846 81.1935 75.7554L81.2141 75.7278C81.3047 75.7981 81.3905 75.8769 81.4699 75.9648L81.445 75.9887C81.5201 76.0719 81.5896 76.1628 81.652 76.2608L81.6809 76.2427C81.7422 76.339 81.7965 76.4417 81.8433 76.5506L81.8119 76.5643C81.8342 76.6164 81.855 76.6701 81.8736 76.7249C81.8922 76.7794 81.9082 76.8342 81.9221 76.8889L81.9551 76.8797C81.9845 76.9949 82.0041 77.1097 82.0143 77.2237L81.9803 77.227C81.9906 77.3429 81.9912 77.4578 81.9823 77.5698L82.016 77.5718C82.0067 77.6898 81.9865 77.8046 81.9575 77.9155L81.9247 77.9071C81.8954 78.019 81.856 78.1262 81.8076 78.2274L81.8386 78.2426C81.7879 78.3487 81.7277 78.448 81.6578 78.5392L81.6302 78.5187C81.5607 78.6094 81.482 78.6917 81.3948 78.7637L81.4166 78.7914C81.3273 78.865 81.2294 78.9277 81.1233 78.9787L81.1093 78.9464C81.0587 78.9707 81.0061 78.9928 80.9518 79.0112C80.8976 79.0296 80.8425 79.0442 80.7875 79.0557L80.7951 79.0902C80.68 79.1143 80.5641 79.1244 80.4485 79.1204L80.4498 79.0848C80.3368 79.0809 80.2242 79.0636 80.1138 79.034L80.1035 79.0674C79.9926 79.0376 79.8842 78.9956 79.7795 78.9424L79.7956 78.9111C79.6956 78.8603 79.5991 78.7993 79.5077 78.7284L79.4856 78.7545C79.3953 78.6843 79.3092 78.6062 79.2301 78.5185L79.2565 78.4961C79.1812 78.4127 79.1117 78.3212 79.0492 78.223L79.0194 78.2414C78.958 78.1449 78.9035 78.0418 78.8567 77.9326L78.8893 77.9195L78.8279 77.7599C78.8093 77.7051 78.793 77.6498 78.7791 77.5949L78.7448 77.6035C78.7156 77.4887 78.6961 77.3741 78.686 77.2604L78.7209 77.2568C78.7106 77.1412 78.7104 77.0267 78.7192 76.9149L78.684 76.9114C78.6933 76.7937 78.7139 76.6793 78.7428 76.5686L78.7765 76.5768C78.8058 76.4649 78.8452 76.3576 78.8936 76.2565L78.8617 76.2415C78.9124 76.1353 78.9722 76.0354 79.0421 75.944L79.071 75.9651C79.1404 75.8745 79.2192 75.7921 79.3064 75.7201L79.2837 75.6927C79.3323 75.6527 79.3832 75.6155 79.4369 75.5819L79.5766 75.5045L79.5919 75.5375C79.6425 75.5131 79.6951 75.4911 79.7494 75.4726C79.8036 75.4542 79.8588 75.4396 79.9137 75.4281L79.9049 75.393Z" fill="#363E44" stroke="#ADBACC" stroke-width="0.0727273" stroke-dasharray="0.36 0.36"/>
<path d="M57.2751 96.0257L64.8275 92.9939C65.1509 92.8641 65.5089 93.0792 65.5461 93.4257L65.747 95.2982L65.9782 97.4529L66.1889 99.416C66.214 99.65 66.0805 99.8723 65.862 99.96L58.3096 102.992C57.9862 103.122 57.6282 102.906 57.591 102.56L57.412 100.892L57.1589 98.5328L56.9482 96.5697C56.9231 96.3356 57.0566 96.1134 57.2751 96.0257Z" fill="#01595A"/>
<path d="M57.1589 98.5328L56.9482 96.5697C56.9231 96.3356 57.0566 96.1134 57.2751 96.0257L64.8275 92.9939C65.1509 92.8641 65.5089 93.0792 65.5461 93.4257L65.9782 97.4529M57.1589 98.5328L65.747 95.2982L65.9782 97.4529M57.1589 98.5328L57.412 100.892M65.9782 97.4529L66.1889 99.416C66.214 99.65 66.0805 99.8723 65.862 99.96L58.3096 102.992C57.9862 103.122 57.6282 102.906 57.591 102.56L57.412 100.892M65.9782 97.4529L57.412 100.892" stroke="#ADBACC" stroke-width="0.181818" stroke-dasharray="0.73 0.73"/>
<path d="M98.5665 80.8715L104.707 78.4065C104.97 78.3009 105.261 78.4758 105.291 78.7576L105.455 80.28L105.643 82.0319L105.814 83.6281C105.835 83.8184 105.726 83.9991 105.548 84.0704L99.4077 86.5354C99.1447 86.641 98.8536 86.4661 98.8234 86.1843L98.6778 84.8279L98.472 82.91L98.3007 81.3138C98.2803 81.1235 98.3889 80.9428 98.5665 80.8715Z" fill="#01595A"/>
<path d="M98.472 82.91L98.3007 81.3138C98.2803 81.1235 98.3889 80.9428 98.5665 80.8715L104.707 78.4065C104.97 78.3009 105.261 78.4758 105.291 78.7576L105.643 82.0319M98.472 82.91L105.455 80.28L105.643 82.0319M98.472 82.91L98.6778 84.8279M105.643 82.0319L105.814 83.6281C105.835 83.8184 105.726 83.9991 105.548 84.0704L99.4077 86.5354C99.1447 86.641 98.8536 86.4661 98.8234 86.1843L98.6778 84.8279M105.643 82.0319L98.6778 84.8279" stroke="#ADBACC" stroke-width="0.181818" stroke-dasharray="0.73 0.73"/>
<defs>
<linearGradient id="paint0_linear_6382_10604" x1="83.2447" y1="43.9141" x2="56.7545" y2="46.6729" gradientUnits="userSpaceOnUse">
<stop stop-color="#0DBFBB"/>
<stop offset="1" stop-color="#0F8D8C"/>
</linearGradient>
</defs>
</svg>
